  0
SECTION
  2
HEADER
  9
$ACADVER
  1
AC1014
  9
$HANDSEED
  5
FFFF
  9
$MEASUREMENT
 70
     1
  0
ENDSEC
  0
SECTION
  2
TABLES
  0
TABLE
  2
VPORT
  5
8
330
0
100
AcDbSymbolTable
 70
     4
  0
VPORT
  5
2E
330
8
100
AcDbSymbolTableRecord
100
AcDbViewportTableRecord
  2
*ACTIVE
 70
     0
 10
0.0
 20
0.0
 11
1.0
 21
1.0
 12
210.0
 22
148.5
 13
0.0
 23
0.0
 14
10.0
 24
10.0
 15
10.0
 25
10.0
 16
0.0
 26
0.0
 36
1.0
 17
0.0
 27
0.0
 37
0.0
 40
341.0
 41
1.24
 42
50.0
 43
0.0
 44
0.0
 50
0.0
 51
0.0
 71
     0
 72
   100
 73
     1
 74
     3
 75
     0
 76
     0
 77
     0
 78
     0
  0
ENDTAB
  0
TABLE
  2
LTYPE
  5
5
330
0
100
AcDbSymbolTable
 70
     1
  0
LTYPE
  5
14
330
5
100
AcDbSymbolTableRecord
100
AcDbLinetypeTableRecord
  2
BYBLOCK
 70
     0
  3

 72
    65
 73
     0
 40
0.0
  0
LTYPE
  5
15
330
5
100
AcDbSymbolTableRecord
100
AcDbLinetypeTableRecord
  2
BYLAYER
 70
     0
  3

 72
    65
 73
     0
 40
0.0
  0
LTYPE
  5
16
330
5
100
AcDbSymbolTableRecord
100
AcDbLinetypeTableRecord
  2
CONTINUOUS
 70
     0
  3
Solid line
 72
    65
 73
     0
 40
0.0
  0
ENDTAB
  0
TABLE
  2
LAYER
  5
2
100
AcDbSymbolTable
 70
1
  0
LAYER
  5
50
100
AcDbSymbolTableRecord
100
AcDbLayerTableRecord
  2
0
 70
0
  6
CONTINUOUS
  0
ENDTAB
  0
TABLE
  2
STYLE
  5
3
330
0
100
AcDbSymbolTable
 70
     1
  0
STYLE
  5
11
330
3
100
AcDbSymbolTableRecord
100
AcDbTextStyleTableRecord
  2
STANDARD
 70
     0
 40
0.0
 41
1.0
 50
0.0
 71
     0
 42
2.5
  3
txt
  4

  0
ENDTAB
  0
TABLE
  2
VIEW
  5
6
330
0
100
AcDbSymbolTable
 70
     0
  0
ENDTAB
  0
TABLE
  2
UCS
  5
7
330
0
100
AcDbSymbolTable
 70
     0
  0
ENDTAB
  0
TABLE
  2
APPID
  5
9
330
0
100
AcDbSymbolTable
 70
     2
  0
APPID
  5
12
330
9
100
AcDbSymbolTableRecord
100
AcDbRegAppTableRecord
  2
ACAD
 70
     0
  0
ENDTAB
  0
TABLE
  2
DIMSTYLE
  5
A
330
0
100
AcDbSymbolTable
 70
     1
  0
DIMSTYLE
105
27
330
A
100
AcDbSymbolTableRecord
100
AcDbDimStyleTableRecord
  2
ISO-25
 70
     0
  3

  4

  5

  6

  7

 40
1.0
 41
2.5
 42
0.625
 43
3.75
 44
1.25
 45
0.0
 46
0.0
 47
0.0
 48
0.0
140
2.5
141
2.5
142
0.0
143
0.03937007874016
144
1.0
145
0.0
146
1.0
147
0.625
 71
     0
 72
     0
 73
     0
 74
     0
 75
     0
 76
     0
 77
     1
 78
     8
170
     0
171
     3
172
     1
173
     0
174
     0
175
     0
176
     0
177
     0
178
     0
270
     2
271
     2
272
     2
273
     2
274
     3
340
11
275
     0
280
     0
281
     0
282
     0
283
     0
284
     8
285
     0
286
     0
287
     3
288
     0
  0
ENDTAB
  0
TABLE
  2
BLOCK_RECORD
  5
1
330
0
100
AcDbSymbolTable
 70
     1
  0
BLOCK_RECORD
  5
1F
330
1
100
AcDbSymbolTableRecord
100
AcDbBlockTableRecord
  2
*MODEL_SPACE
  0
BLOCK_RECORD
  5
1B
330
1
100
AcDbSymbolTableRecord
100
AcDbBlockTableRecord
  2
*PAPER_SPACE
  0
ENDTAB
  0
ENDSEC
  0
SECTION
  2
BLOCKS
  0
BLOCK
  5
20
330
1F
100
AcDbEntity
  8
0
100
AcDbBlockBegin
  2
*MODEL_SPACE
 70
     0
 10
0.0
 20
0.0
 30
0.0
  3
*MODEL_SPACE
  1

  0
ENDBLK
  5
21
330
1F
100
AcDbEntity
  8
0
100
AcDbBlockEnd
  0
BLOCK
  5
1C
330
1B
100
AcDbEntity
 67
     1
  8
0
100
AcDbBlockBegin
  2
*PAPER_SPACE
  1

  0
ENDBLK
  5
1D
330
1B
100
AcDbEntity
 67
     1
  8
0
100
AcDbBlockEnd
  0
ENDSEC
  0
SECTION
  2
ENTITIES
  0
SPLINE
  5
100
100
AcDbEntity
  8
0
 62
7
100
AcDbSpline
 70
8
 71
3
 72
8
 73
4
 74
0
 40
0
 40
0
 40
0
 40
0
 40
1
 40
1
 40
1
 40
1
 10
0.175000
 20
172.175010
 30
0.0
 10
0.175000
 20
172.705443
 30
0.0
 10
0.385714
 20
173.214151
 30
0.0
 10
0.760786
 20
173.589224
 30
0.0
  0
SPLINE
  5
101
100
AcDbEntity
  8
0
 62
7
100
AcDbSpline
 70
8
 71
3
 72
8
 73
4
 74
0
 40
0
 40
0
 40
0
 40
0
 40
1
 40
1
 40
1
 40
1
 10
0.760786
 20
173.589224
 30
0.0
 10
1.135859
 20
173.964296
 30
0.0
 10
1.644567
 20
174.175010
 30
0.0
 10
2.175000
 20
174.175010
 30
0.0
  0
SPLINE
  5
102
100
AcDbEntity
  8
0
 62
7
100
AcDbSpline
 70
8
 71
3
 72
8
 73
4
 74
0
 40
0
 40
0
 40
0
 40
0
 40
1
 40
1
 40
1
 40
1
 10
64.875000
 20
174.175010
 30
0.0
 10
65.405433
 20
174.175010
 30
0.0
 10
65.914141
 20
173.964296
 30
0.0
 10
66.289214
 20
173.589224
 30
0.0
  0
SPLINE
  5
103
100
AcDbEntity
  8
0
 62
7
100
AcDbSpline
 70
8
 71
3
 72
8
 73
4
 74
0
 40
0
 40
0
 40
0
 40
0
 40
1
 40
1
 40
1
 40
1
 10
66.289214
 20
173.589224
 30
0.0
 10
66.664286
 20
173.214151
 30
0.0
 10
66.875000
 20
172.705443
 30
0.0
 10
66.875000
 20
172.175010
 30
0.0
  0
LWPOLYLINE
  5
104
100
AcDbEntity
  8
0
 62
7
100
AcDbPolyline
 90
2
 70
0
 10
2.175000
 20
174.175010
 30
0.0
 10
64.875000
 20
174.175010
 30
0.0
  0
LWPOLYLINE
  5
105
100
AcDbEntity
  8
0
 62
7
100
AcDbPolyline
 90
2
 70
0
 10
0.175000
 20
2.175010
 30
0.0
 10
0.175000
 20
172.175010
 30
0.0
  0
SPLINE
  5
106
100
AcDbEntity
  8
0
 62
7
100
AcDbSpline
 70
8
 71
3
 72
8
 73
4
 74
0
 40
0
 40
0
 40
0
 40
0
 40
1
 40
1
 40
1
 40
1
 10
2.175000
 20
0.175010
 30
0.0
 10
1.644567
 20
0.175010
 30
0.0
 10
1.135859
 20
0.385724
 30
0.0
 10
0.760786
 20
0.760796
 30
0.0
  0
SPLINE
  5
107
100
AcDbEntity
  8
0
 62
7
100
AcDbSpline
 70
8
 71
3
 72
8
 73
4
 74
0
 40
0
 40
0
 40
0
 40
0
 40
1
 40
1
 40
1
 40
1
 10
0.760786
 20
0.760796
 30
0.0
 10
0.385714
 20
1.135869
 30
0.0
 10
0.175000
 20
1.644577
 30
0.0
 10
0.175000
 20
2.175010
 30
0.0
  0
SPLINE
  5
108
100
AcDbEntity
  8
0
 62
7
100
AcDbSpline
 70
8
 71
3
 72
8
 73
4
 74
0
 40
0
 40
0
 40
0
 40
0
 40
1
 40
1
 40
1
 40
1
 10
66.875000
 20
2.175010
 30
0.0
 10
66.875000
 20
1.644577
 30
0.0
 10
66.664286
 20
1.135869
 30
0.0
 10
66.289214
 20
0.760796
 30
0.0
  0
SPLINE
  5
109
100
AcDbEntity
  8
0
 62
7
100
AcDbSpline
 70
8
 71
3
 72
8
 73
4
 74
0
 40
0
 40
0
 40
0
 40
0
 40
1
 40
1
 40
1
 40
1
 10
66.289214
 20
0.760796
 30
0.0
 10
65.914141
 20
0.385724
 30
0.0
 10
65.405433
 20
0.175010
 30
0.0
 10
64.875000
 20
0.175010
 30
0.0
  0
LWPOLYLINE
  5
10a
100
AcDbEntity
  8
0
 62
7
100
AcDbPolyline
 90
2
 70
0
 10
66.875000
 20
172.175010
 30
0.0
 10
66.875000
 20
2.175010
 30
0.0
  0
LWPOLYLINE
  5
10b
100
AcDbEntity
  8
0
 62
7
100
AcDbPolyline
 90
2
 70
0
 10
64.875000
 20
0.175010
 30
0.0
 10
2.175000
 20
0.175010
 30
0.0
  0
SPLINE
  5
10c
100
AcDbEntity
  8
0
 62
7
100
AcDbSpline
 70
8
 71
3
 72
8
 73
4
 74
0
 40
0
 40
0
 40
0
 40
0
 40
1
 40
1
 40
1
 40
1
 10
62.375000
 20
6.875010
 30
0.0
 10
63.235267
 20
6.875011
 30
0.0
 10
64.016613
 20
6.373590
 30
0.0
 10
64.375000
 20
5.591530
 30
0.0
  0
SPLINE
  5
10d
100
AcDbEntity
  8
0
 62
7
100
AcDbSpline
 70
8
 71
3
 72
8
 73
4
 74
0
 40
0
 40
0
 40
0
 40
0
 40
1
 40
1
 40
1
 40
1
 10
64.375000
 20
3.758490
 30
0.0
 10
64.155339
 20
3.279160
 30
0.0
 10
63.770834
 20
2.894662
 30
0.0
 10
63.291500
 20
2.675010
 30
0.0
  0
SPLINE
  5
10e
100
AcDbEntity
  8
0
 62
7
100
AcDbSpline
 70
8
 71
3
 72
8
 73
4
 74
0
 40
0
 40
0
 40
0
 40
0
 40
1
 40
1
 40
1
 40
1
 10
61.458500
 20
2.675010
 30
0.0
 10
60.518244
 20
3.105890
 30
0.0
 10
60.005089
 20
4.133541
 30
0.0
 10
60.225595
 20
5.144044
 30
0.0
  0
SPLINE
  5
10f
100
AcDbEntity
  8
0
 62
7
100
AcDbSpline
 70
8
 71
3
 72
8
 73
4
 74
0
 40
0
 40
0
 40
0
 40
0
 40
1
 40
1
 40
1
 40
1
 10
60.225595
 20
5.144044
 30
0.0
 10
60.446101
 20
6.154547
 30
0.0
 10
61.340718
 20
6.875003
 30
0.0
 10
62.375000
 20
6.875010
 30
0.0
  0
LWPOLYLINE
  5
110
100
AcDbEntity
  8
0
 62
7
100
AcDbPolyline
 90
2
 70
0
 10
61.458500
 20
2.675010
 30
0.0
 10
5.591520
 20
2.675010
 30
0.0
  0
SPLINE
  5
111
100
AcDbEntity
  8
0
 62
7
100
AcDbSpline
 70
8
 71
3
 72
8
 73
4
 74
0
 40
0
 40
0
 40
0
 40
0
 40
1
 40
1
 40
1
 40
1
 10
63.291500
 20
171.675010
 30
0.0
 10
63.770751
 20
171.455477
 30
0.0
 10
64.155245
 20
171.071160
 30
0.0
 10
64.375000
 20
170.592010
 30
0.0
  0
SPLINE
  5
112
100
AcDbEntity
  8
0
 62
7
100
AcDbSpline
 70
8
 71
3
 72
8
 73
4
 74
0
 40
0
 40
0
 40
0
 40
0
 40
1
 40
1
 40
1
 40
1
 10
64.375000
 20
168.758010
 30
0.0
 10
63.968348
 20
167.871330
 30
0.0
 10
63.026368
 20
167.358312
 30
0.0
 10
62.060897
 20
167.497709
 30
0.0
  0
SPLINE
  5
113
100
AcDbEntity
  8
0
 62
7
100
AcDbSpline
 70
8
 71
3
 72
8
 73
4
 74
0
 40
0
 40
0
 40
0
 40
0
 40
1
 40
1
 40
1
 40
1
 10
62.060897
 20
167.497709
 30
0.0
 10
61.095425
 20
167.637105
 30
0.0
 10
60.337033
 20
168.395627
 30
0.0
 10
60.197802
 20
169.361123
 30
0.0
  0
SPLINE
  5
114
100
AcDbEntity
  8
0
 62
7
100
AcDbSpline
 70
8
 71
3
 72
8
 73
4
 74
0
 40
0
 40
0
 40
0
 40
0
 40
1
 40
1
 40
1
 40
1
 10
60.197802
 20
169.361123
 30
0.0
 10
60.058571
 20
170.326618
 30
0.0
 10
60.571751
 20
171.268510
 30
0.0
 10
61.458500
 20
171.675010
 30
0.0
  0
LWPOLYLINE
  5
115
100
AcDbEntity
  8
0
 62
7
100
AcDbPolyline
 90
2
 70
0
 10
64.375000
 20
168.758010
 30
0.0
 10
64.375000
 20
5.591530
 30
0.0
  0
SPLINE
  5
116
100
AcDbEntity
  8
0
 62
7
100
AcDbSpline
 70
8
 71
3
 72
8
 73
4
 74
0
 40
0
 40
0
 40
0
 40
0
 40
1
 40
1
 40
1
 40
1
 10
5.591520
 20
171.675010
 30
0.0
 10
6.478260
 20
171.268500
 30
0.0
 10
6.991428
 20
170.326610
 30
0.0
 10
6.852191
 20
169.361120
 30
0.0
  0
SPLINE
  5
117
100
AcDbEntity
  8
0
 62
7
100
AcDbSpline
 70
8
 71
3
 72
8
 73
4
 74
0
 40
0
 40
0
 40
0
 40
0
 40
1
 40
1
 40
1
 40
1
 10
6.852191
 20
169.361120
 30
0.0
 10
6.712954
 20
168.395630
 30
0.0
 10
5.954564
 20
167.637116
 30
0.0
 10
4.989097
 20
167.497720
 30
0.0
  0
SPLINE
  5
118
100
AcDbEntity
  8
0
 62
7
100
AcDbSpline
 70
8
 71
3
 72
8
 73
4
 74
0
 40
0
 40
0
 40
0
 40
0
 40
1
 40
1
 40
1
 40
1
 10
4.989097
 20
167.497720
 30
0.0
 10
4.023630
 20
167.358324
 30
0.0
 10
3.081655
 20
167.871337
 30
0.0
 10
2.675000
 20
168.758010
 30
0.0
  0
SPLINE
  5
119
100
AcDbEntity
  8
0
 62
7
100
AcDbSpline
 70
8
 71
3
 72
8
 73
4
 74
0
 40
0
 40
0
 40
0
 40
0
 40
1
 40
1
 40
1
 40
1
 10
2.675000
 20
170.592010
 30
0.0
 10
2.894750
 20
171.071156
 30
0.0
 10
3.279236
 20
171.455473
 30
0.0
 10
3.758480
 20
171.675010
 30
0.0
  0
LWPOLYLINE
  5
11a
100
AcDbEntity
  8
0
 62
7
100
AcDbPolyline
 90
2
 70
0
 10
5.591520
 20
171.675010
 30
0.0
 10
61.458500
 20
171.675010
 30
0.0
  0
SPLINE
  5
11b
100
AcDbEntity
  8
0
 62
7
100
AcDbSpline
 70
8
 71
3
 72
8
 73
4
 74
0
 40
0
 40
0
 40
0
 40
0
 40
1
 40
1
 40
1
 40
1
 10
4.675000
 20
6.875010
 30
0.0
 10
5.709286
 20
6.875012
 30
0.0
 10
6.603911
 20
6.154560
 30
0.0
 10
6.824423
 20
5.144054
 30
0.0
  0
SPLINE
  5
11c
100
AcDbEntity
  8
0
 62
7
100
AcDbSpline
 70
8
 71
3
 72
8
 73
4
 74
0
 40
0
 40
0
 40
0
 40
0
 40
1
 40
1
 40
1
 40
1
 10
6.824423
 20
5.144054
 30
0.0
 10
7.044934
 20
4.133548
 30
0.0
 10
6.531780
 20
3.105891
 30
0.0
 10
5.591520
 20
2.675010
 30
0.0
  0
SPLINE
  5
11d
100
AcDbEntity
  8
0
 62
7
100
AcDbSpline
 70
8
 71
3
 72
8
 73
4
 74
0
 40
0
 40
0
 40
0
 40
0
 40
1
 40
1
 40
1
 40
1
 10
3.758480
 20
2.675010
 30
0.0
 10
3.279154
 20
2.894666
 30
0.0
 10
2.894656
 20
3.279164
 30
0.0
 10
2.675000
 20
3.758490
 30
0.0
  0
SPLINE
  5
11e
100
AcDbEntity
  8
0
 62
7
100
AcDbSpline
 70
8
 71
3
 72
8
 73
4
 74
0
 40
0
 40
0
 40
0
 40
0
 40
1
 40
1
 40
1
 40
1
 10
2.675000
 20
5.591530
 30
0.0
 10
3.033387
 20
6.373590
 30
0.0
 10
3.814733
 20
6.875011
 30
0.0
 10
4.675000
 20
6.875010
 30
0.0
  0
SPLINE
  5
11f
100
AcDbEntity
  8
0
 62
7
100
AcDbSpline
 70
8
 71
3
 72
8
 73
4
 74
0
 40
0
 40
0
 40
0
 40
0
 40
1
 40
1
 40
1
 40
1
 10
5.591520
 20
2.675010
 30
0.0
 10
5.009603
 20
2.408340
 30
0.0
 10
4.340397
 20
2.408340
 30
0.0
 10
3.758480
 20
2.675010
 30
0.0
  0
SPLINE
  5
120
100
AcDbEntity
  8
0
 62
7
100
AcDbSpline
 70
8
 71
3
 72
8
 73
4
 74
0
 40
0
 40
0
 40
0
 40
0
 40
1
 40
1
 40
1
 40
1
 10
63.291500
 20
2.675010
 30
0.0
 10
62.709594
 20
2.408353
 30
0.0
 10
62.040406
 20
2.408353
 30
0.0
 10
61.458500
 20
2.675010
 30
0.0
  0
SPLINE
  5
121
100
AcDbEntity
  8
0
 62
7
100
AcDbSpline
 70
8
 71
3
 72
8
 73
4
 74
0
 40
0
 40
0
 40
0
 40
0
 40
1
 40
1
 40
1
 40
1
 10
64.375000
 20
5.591530
 30
0.0
 10
64.641670
 20
5.009613
 30
0.0
 10
64.641670
 20
4.340407
 30
0.0
 10
64.375000
 20
3.758490
 30
0.0
  0
SPLINE
  5
122
100
AcDbEntity
  8
0
 62
7
100
AcDbSpline
 70
8
 71
3
 72
8
 73
4
 74
0
 40
0
 40
0
 40
0
 40
0
 40
1
 40
1
 40
1
 40
1
 10
64.375000
 20
170.592010
 30
0.0
 10
64.641963
 20
170.009822
 30
0.0
 10
64.641963
 20
169.340198
 30
0.0
 10
64.375000
 20
168.758010
 30
0.0
  0
SPLINE
  5
123
100
AcDbEntity
  8
0
 62
7
100
AcDbSpline
 70
8
 71
3
 72
8
 73
4
 74
0
 40
0
 40
0
 40
0
 40
0
 40
1
 40
1
 40
1
 40
1
 10
62.375000
 20
171.875010
 30
0.0
 10
62.691326
 20
171.875008
 30
0.0
 10
63.003931
 20
171.806791
 30
0.0
 10
63.291500
 20
171.675010
 30
0.0
  0
SPLINE
  5
124
100
AcDbEntity
  8
0
 62
7
100
AcDbSpline
 70
8
 71
3
 72
8
 73
4
 74
0
 40
0
 40
0
 40
0
 40
0
 40
1
 40
1
 40
1
 40
1
 10
61.458500
 20
171.675010
 30
0.0
 10
61.746069
 20
171.806791
 30
0.0
 10
62.058674
 20
171.875008
 30
0.0
 10
62.375000
 20
171.875010
 30
0.0
  0
SPLINE
  5
125
100
AcDbEntity
  8
0
 62
7
100
AcDbSpline
 70
8
 71
3
 72
8
 73
4
 74
0
 40
0
 40
0
 40
0
 40
0
 40
1
 40
1
 40
1
 40
1
 10
4.675000
 20
171.875010
 30
0.0
 10
4.991332
 20
171.875011
 30
0.0
 10
5.303945
 20
171.806793
 30
0.0
 10
5.591520
 20
171.675010
 30
0.0
  0
SPLINE
  5
126
100
AcDbEntity
  8
0
 62
7
100
AcDbSpline
 70
8
 71
3
 72
8
 73
4
 74
0
 40
0
 40
0
 40
0
 40
0
 40
1
 40
1
 40
1
 40
1
 10
3.758480
 20
171.675010
 30
0.0
 10
4.046055
 20
171.806793
 30
0.0
 10
4.358668
 20
171.875011
 30
0.0
 10
4.675000
 20
171.875010
 30
0.0
  0
SPLINE
  5
127
100
AcDbEntity
  8
0
 62
7
100
AcDbSpline
 70
8
 71
3
 72
8
 73
4
 74
0
 40
0
 40
0
 40
0
 40
0
 40
1
 40
1
 40
1
 40
1
 10
2.675000
 20
168.758010
 30
0.0
 10
2.408037
 20
169.340198
 30
0.0
 10
2.408037
 20
170.009822
 30
0.0
 10
2.675000
 20
170.592010
 30
0.0
  0
SPLINE
  5
128
100
AcDbEntity
  8
0
 62
7
100
AcDbSpline
 70
8
 71
3
 72
8
 73
4
 74
0
 40
0
 40
0
 40
0
 40
0
 40
1
 40
1
 40
1
 40
1
 10
2.675000
 20
3.758490
 30
0.0
 10
2.408330
 20
4.340407
 30
0.0
 10
2.408330
 20
5.009613
 30
0.0
 10
2.675000
 20
5.591530
 30
0.0
  0
SPLINE
  5
129
100
AcDbEntity
  8
0
 62
7
100
AcDbSpline
 70
8
 71
3
 72
8
 73
4
 74
0
 40
0
 40
0
 40
0
 40
0
 40
1
 40
1
 40
1
 40
1
 10
18.738100
 20
74.675010
 30
0.0
 10
15.805367
 20
76.018957
 30
0.0
 10
13.925032
 20
78.949003
 30
0.0
 10
13.925032
 20
82.175010
 30
0.0
  0
SPLINE
  5
12a
100
AcDbEntity
  8
0
 62
7
100
AcDbSpline
 70
8
 71
3
 72
8
 73
4
 74
0
 40
0
 40
0
 40
0
 40
0
 40
1
 40
1
 40
1
 40
1
 10
13.925032
 20
82.175010
 30
0.0
 10
13.925032
 20
85.401017
 30
0.0
 10
15.805367
 20
88.331063
 30
0.0
 10
18.738100
 20
89.675010
 30
0.0
  0
LWPOLYLINE
  5
12b
100
AcDbEntity
  8
0
 62
7
100
AcDbPolyline
 90
2
 70
0
 10
2.675000
 20
5.591530
 30
0.0
 10
2.675000
 20
168.758010
 30
0.0
  0
LWPOLYLINE
  5
12c
100
AcDbEntity
  8
0
 62
7
100
AcDbPolyline
 90
2
 70
0
 10
25.611900
 20
74.675010
 30
0.0
 10
18.738100
 20
74.675010
 30
0.0
  0
SPLINE
  5
12d
100
AcDbEntity
  8
0
 62
7
100
AcDbSpline
 70
8
 71
3
 72
8
 73
4
 74
0
 40
0
 40
0
 40
0
 40
0
 40
1
 40
1
 40
1
 40
1
 10
25.611900
 20
89.675010
 30
0.0
 10
28.544633
 20
88.331063
 30
0.0
 10
30.424968
 20
85.401017
 30
0.0
 10
30.424968
 20
82.175010
 30
0.0
  0
SPLINE
  5
12e
100
AcDbEntity
  8
0
 62
7
100
AcDbSpline
 70
8
 71
3
 72
8
 73
4
 74
0
 40
0
 40
0
 40
0
 40
0
 40
1
 40
1
 40
1
 40
1
 10
30.424968
 20
82.175010
 30
0.0
 10
30.424968
 20
78.949003
 30
0.0
 10
28.544633
 20
76.018957
 30
0.0
 10
25.611900
 20
74.675010
 30
0.0
  0
SPLINE
  5
12f
100
AcDbEntity
  8
0
 62
7
100
AcDbSpline
 70
8
 71
3
 72
8
 73
4
 74
0
 40
0
 40
0
 40
0
 40
0
 40
1
 40
1
 40
1
 40
1
 10
15.142000
 20
148.300010
 30
0.0
 10
15.142015
 20
149.383901
 30
0.0
 10
15.914800
 20
150.313730
 30
0.0
 10
16.980400
 20
150.512010
 30
0.0
  0
LWPOLYLINE
  5
130
100
AcDbEntity
  8
0
 62
7
100
AcDbPolyline
 90
2
 70
0
 10
25.611900
 20
89.675010
 30
0.0
 10
18.738100
 20
89.675010
 30
0.0
  0
LWPOLYLINE
  5
131
100
AcDbEntity
  8
0
 62
7
100
AcDbPolyline
 90
2
 70
0
 10
15.142000
 20
136.050010
 30
0.0
 10
15.142000
 20
148.300010
 30
0.0
  0
SPLINE
  5
132
100
AcDbEntity
  8
0
 62
7
100
AcDbSpline
 70
8
 71
3
 72
8
 73
4
 74
0
 40
0
 40
0
 40
0
 40
0
 40
1
 40
1
 40
1
 40
1
 10
16.980400
 20
133.838010
 30
0.0
 10
15.914800
 20
134.036290
 30
0.0
 10
15.142015
 20
134.966119
 30
0.0
 10
15.142000
 20
136.050010
 30
0.0
  0
SPLINE
  5
133
100
AcDbEntity
  8
0
 62
7
100
AcDbSpline
 70
8
 71
3
 72
8
 73
4
 74
0
 40
0
 40
0
 40
0
 40
0
 40
1
 40
1
 40
1
 40
1
 10
23.071800
 20
151.645010
 30
0.0
 10
23.583127
 20
151.740175
 30
0.0
 10
24.110291
 20
151.602966
 30
0.0
 10
24.510339
 20
151.270591
 30
0.0
  0
SPLINE
  5
134
100
AcDbEntity
  8
0
 62
7
100
AcDbSpline
 70
8
 71
3
 72
8
 73
4
 74
0
 40
0
 40
0
 40
0
 40
0
 40
1
 40
1
 40
1
 40
1
 10
24.510339
 20
151.270591
 30
0.0
 10
24.910387
 20
150.938216
 30
0.0
 10
25.141864
 20
150.445118
 30
0.0
 10
25.142000
 20
149.925010
 30
0.0
  0
LWPOLYLINE
  5
135
100
AcDbEntity
  8
0
 62
7
100
AcDbPolyline
 90
2
 70
0
 10
23.071800
 20
151.645010
 30
0.0
 10
16.980400
 20
150.512010
 30
0.0
  0
LWPOLYLINE
  5
136
100
AcDbEntity
  8
0
 62
7
100
AcDbPolyline
 90
2
 70
0
 10
23.071800
 20
132.705010
 30
0.0
 10
16.980400
 20
133.838010
 30
0.0
  0
SPLINE
  5
137
100
AcDbEntity
  8
0
 62
7
100
AcDbSpline
 70
8
 71
3
 72
8
 73
4
 74
0
 40
0
 40
0
 40
0
 40
0
 40
1
 40
1
 40
1
 40
1
 10
25.142000
 20
134.425010
 30
0.0
 10
25.141864
 20
133.904902
 30
0.0
 10
24.910387
 20
133.411804
 30
0.0
 10
24.510339
 20
133.079429
 30
0.0
  0
SPLINE
  5
138
100
AcDbEntity
  8
0
 62
7
100
AcDbSpline
 70
8
 71
3
 72
8
 73
4
 74
0
 40
0
 40
0
 40
0
 40
0
 40
1
 40
1
 40
1
 40
1
 10
24.510339
 20
133.079429
 30
0.0
 10
24.110291
 20
132.747054
 30
0.0
 10
23.583127
 20
132.609845
 30
0.0
 10
23.071800
 20
132.705010
 30
0.0
  0
SPLINE
  5
139
100
AcDbEntity
  8
0
 62
7
100
AcDbSpline
 70
8
 71
3
 72
8
 73
4
 74
0
 40
0
 40
0
 40
0
 40
0
 40
1
 40
1
 40
1
 40
1
 10
21.641994
 20
129.675007
 30
0.0
 10
21.641994
 20
130.210905
 30
0.0
 10
21.356096
 20
130.706096
 30
0.0
 10
20.891994
 20
130.974045
 30
0.0
  0
SPLINE
  5
13a
100
AcDbEntity
  8
0
 62
7
100
AcDbSpline
 70
8
 71
3
 72
8
 73
4
 74
0
 40
0
 40
0
 40
0
 40
0
 40
1
 40
1
 40
1
 40
1
 10
20.891994
 20
130.974045
 30
0.0
 10
20.427892
 20
131.241994
 30
0.0
 10
19.856096
 20
131.241994
 30
0.0
 10
19.391994
 20
130.974045
 30
0.0
  0
SPLINE
  5
13b
100
AcDbEntity
  8
0
 62
7
100
AcDbSpline
 70
8
 71
3
 72
8
 73
4
 74
0
 40
0
 40
0
 40
0
 40
0
 40
1
 40
1
 40
1
 40
1
 10
19.391994
 20
130.974045
 30
0.0
 10
18.927892
 20
130.706096
 30
0.0
 10
18.641994
 20
130.210905
 30
0.0
 10
18.641994
 20
129.675007
 30
0.0
  0
SPLINE
  5
13c
100
AcDbEntity
  8
0
 62
7
100
AcDbSpline
 70
8
 71
3
 72
8
 73
4
 74
0
 40
0
 40
0
 40
0
 40
0
 40
1
 40
1
 40
1
 40
1
 10
18.641994
 20
129.675007
 30
0.0
 10
18.641994
 20
129.139109
 30
0.0
 10
18.927892
 20
128.643918
 30
0.0
 10
19.391994
 20
128.375969
 30
0.0
  0
SPLINE
  5
13d
100
AcDbEntity
  8
0
 62
7
100
AcDbSpline
 70
8
 71
3
 72
8
 73
4
 74
0
 40
0
 40
0
 40
0
 40
0
 40
1
 40
1
 40
1
 40
1
 10
19.391994
 20
128.375969
 30
0.0
 10
19.856096
 20
128.108020
 30
0.0
 10
20.427892
 20
128.108020
 30
0.0
 10
20.891994
 20
128.375969
 30
0.0
  0
SPLINE
  5
13e
100
AcDbEntity
  8
0
 62
7
100
AcDbSpline
 70
8
 71
3
 72
8
 73
4
 74
0
 40
0
 40
0
 40
0
 40
0
 40
1
 40
1
 40
1
 40
1
 10
20.891994
 20
128.375969
 30
0.0
 10
21.356096
 20
128.643918
 30
0.0
 10
21.641994
 20
129.139109
 30
0.0
 10
21.641994
 20
129.675007
 30
0.0
  0
LWPOLYLINE
  5
13f
100
AcDbEntity
  8
0
 62
7
100
AcDbPolyline
 90
2
 70
0
 10
25.142000
 20
134.425010
 30
0.0
 10
25.142000
 20
149.925010
 30
0.0
  0
LWPOLYLINE
  5
140
100
AcDbEntity
  8
0
 62
7
100
AcDbPolyline
 90
1
 70
1
 10
21.641994
 20
129.675007
 30
0.0
  0
SPLINE
  5
141
100
AcDbEntity
  8
0
 62
7
100
AcDbSpline
 70
8
 71
3
 72
8
 73
4
 74
0
 40
0
 40
0
 40
0
 40
0
 40
1
 40
1
 40
1
 40
1
 10
18.738100
 20
99.675010
 30
0.0
 10
15.805367
 20
101.018957
 30
0.0
 10
13.925032
 20
103.949003
 30
0.0
 10
13.925032
 20
107.175010
 30
0.0
  0
SPLINE
  5
142
100
AcDbEntity
  8
0
 62
7
100
AcDbSpline
 70
8
 71
3
 72
8
 73
4
 74
0
 40
0
 40
0
 40
0
 40
0
 40
1
 40
1
 40
1
 40
1
 10
13.925032
 20
107.175010
 30
0.0
 10
13.925032
 20
110.401017
 30
0.0
 10
15.805367
 20
113.331063
 30
0.0
 10
18.738100
 20
114.675010
 30
0.0
  0
SPLINE
  5
143
100
AcDbEntity
  8
0
 62
7
100
AcDbSpline
 70
8
 71
3
 72
8
 73
4
 74
0
 40
0
 40
0
 40
0
 40
0
 40
1
 40
1
 40
1
 40
1
 10
25.611900
 20
114.675010
 30
0.0
 10
28.544633
 20
113.331063
 30
0.0
 10
30.424968
 20
110.401017
 30
0.0
 10
30.424968
 20
107.175010
 30
0.0
  0
SPLINE
  5
144
100
AcDbEntity
  8
0
 62
7
100
AcDbSpline
 70
8
 71
3
 72
8
 73
4
 74
0
 40
0
 40
0
 40
0
 40
0
 40
1
 40
1
 40
1
 40
1
 10
30.424968
 20
107.175010
 30
0.0
 10
30.424968
 20
103.949003
 30
0.0
 10
28.544633
 20
101.018957
 30
0.0
 10
25.611900
 20
99.675010
 30
0.0
  0
LWPOLYLINE
  5
145
100
AcDbEntity
  8
0
 62
7
100
AcDbPolyline
 90
2
 70
0
 10
25.611900
 20
114.675010
 30
0.0
 10
18.738100
 20
114.675010
 30
0.0
  0
SPLINE
  5
146
100
AcDbEntity
  8
0
 62
7
100
AcDbSpline
 70
8
 71
3
 72
8
 73
4
 74
0
 40
0
 40
0
 40
0
 40
0
 40
1
 40
1
 40
1
 40
1
 10
56.174999
 20
135.143025
 30
0.0
 10
56.174999
 20
135.678923
 30
0.0
 10
55.889101
 20
136.174114
 30
0.0
 10
55.424999
 20
136.442063
 30
0.0
  0
SPLINE
  5
147
100
AcDbEntity
  8
0
 62
7
100
AcDbSpline
 70
8
 71
3
 72
8
 73
4
 74
0
 40
0
 40
0
 40
0
 40
0
 40
1
 40
1
 40
1
 40
1
 10
55.424999
 20
136.442063
 30
0.0
 10
54.960897
 20
136.710012
 30
0.0
 10
54.389101
 20
136.710012
 30
0.0
 10
53.924999
 20
136.442063
 30
0.0
  0
SPLINE
  5
148
100
AcDbEntity
  8
0
 62
7
100
AcDbSpline
 70
8
 71
3
 72
8
 73
4
 74
0
 40
0
 40
0
 40
0
 40
0
 40
1
 40
1
 40
1
 40
1
 10
53.924999
 20
136.442063
 30
0.0
 10
53.460897
 20
136.174114
 30
0.0
 10
53.174999
 20
135.678923
 30
0.0
 10
53.174999
 20
135.143025
 30
0.0
  0
SPLINE
  5
149
100
AcDbEntity
  8
0
 62
7
100
AcDbSpline
 70
8
 71
3
 72
8
 73
4
 74
0
 40
0
 40
0
 40
0
 40
0
 40
1
 40
1
 40
1
 40
1
 10
53.174999
 20
135.143025
 30
0.0
 10
53.174999
 20
134.607127
 30
0.0
 10
53.460897
 20
134.111936
 30
0.0
 10
53.924999
 20
133.843987
 30
0.0
  0
SPLINE
  5
14a
100
AcDbEntity
  8
0
 62
7
100
AcDbSpline
 70
8
 71
3
 72
8
 73
4
 74
0
 40
0
 40
0
 40
0
 40
0
 40
1
 40
1
 40
1
 40
1
 10
53.924999
 20
133.843987
 30
0.0
 10
54.389101
 20
133.576038
 30
0.0
 10
54.960897
 20
133.576038
 30
0.0
 10
55.424999
 20
133.843987
 30
0.0
  0
SPLINE
  5
14b
100
AcDbEntity
  8
0
 62
7
100
AcDbSpline
 70
8
 71
3
 72
8
 73
4
 74
0
 40
0
 40
0
 40
0
 40
0
 40
1
 40
1
 40
1
 40
1
 10
55.424999
 20
133.843987
 30
0.0
 10
55.889101
 20
134.111936
 30
0.0
 10
56.174999
 20
134.607127
 30
0.0
 10
56.174999
 20
135.143025
 30
0.0
  0
LWPOLYLINE
  5
14c
100
AcDbEntity
  8
0
 62
7
100
AcDbPolyline
 90
2
 70
0
 10
25.611900
 20
99.675010
 30
0.0
 10
18.738100
 20
99.675010
 30
0.0
  0
LWPOLYLINE
  5
14d
100
AcDbEntity
  8
0
 62
7
100
AcDbPolyline
 90
1
 70
1
 10
56.174999
 20
135.143025
 30
0.0
  0
SPLINE
  5
14e
100
AcDbEntity
  8
0
 62
7
100
AcDbSpline
 70
8
 71
3
 72
8
 73
4
 74
0
 40
0
 40
0
 40
0
 40
0
 40
1
 40
1
 40
1
 40
1
 10
43.738100
 20
74.675010
 30
0.0
 10
40.805367
 20
76.018957
 30
0.0
 10
38.925032
 20
78.949003
 30
0.0
 10
38.925032
 20
82.175010
 30
0.0
  0
SPLINE
  5
14f
100
AcDbEntity
  8
0
 62
7
100
AcDbSpline
 70
8
 71
3
 72
8
 73
4
 74
0
 40
0
 40
0
 40
0
 40
0
 40
1
 40
1
 40
1
 40
1
 10
38.925032
 20
82.175010
 30
0.0
 10
38.925032
 20
85.401017
 30
0.0
 10
40.805367
 20
88.331063
 30
0.0
 10
43.738100
 20
89.675010
 30
0.0
  0
SPLINE
  5
150
100
AcDbEntity
  8
0
 62
7
100
AcDbSpline
 70
8
 71
3
 72
8
 73
4
 74
0
 40
0
 40
0
 40
0
 40
0
 40
1
 40
1
 40
1
 40
1
 10
50.611900
 20
89.675010
 30
0.0
 10
53.544633
 20
88.331063
 30
0.0
 10
55.424968
 20
85.401017
 30
0.0
 10
55.424968
 20
82.175010
 30
0.0
  0
SPLINE
  5
151
100
AcDbEntity
  8
0
 62
7
100
AcDbSpline
 70
8
 71
3
 72
8
 73
4
 74
0
 40
0
 40
0
 40
0
 40
0
 40
1
 40
1
 40
1
 40
1
 10
55.424968
 20
82.175010
 30
0.0
 10
55.424968
 20
78.949003
 30
0.0
 10
53.544633
 20
76.018957
 30
0.0
 10
50.611900
 20
74.675010
 30
0.0
  0
LWPOLYLINE
  5
152
100
AcDbEntity
  8
0
 62
7
100
AcDbPolyline
 90
2
 70
0
 10
50.611900
 20
89.675010
 30
0.0
 10
43.738100
 20
89.675010
 30
0.0
  0
SPLINE
  5
153
100
AcDbEntity
  8
0
 62
7
100
AcDbSpline
 70
8
 71
3
 72
8
 73
4
 74
0
 40
0
 40
0
 40
0
 40
0
 40
1
 40
1
 40
1
 40
1
 10
31.174997
 20
150.143026
 30
0.0
 10
31.174997
 20
150.678924
 30
0.0
 10
30.889099
 20
151.174115
 30
0.0
 10
30.424997
 20
151.442064
 30
0.0
  0
SPLINE
  5
154
100
AcDbEntity
  8
0
 62
7
100
AcDbSpline
 70
8
 71
3
 72
8
 73
4
 74
0
 40
0
 40
0
 40
0
 40
0
 40
1
 40
1
 40
1
 40
1
 10
30.424997
 20
151.442064
 30
0.0
 10
29.960895
 20
151.710013
 30
0.0
 10
29.389099
 20
151.710013
 30
0.0
 10
28.924997
 20
151.442064
 30
0.0
  0
SPLINE
  5
155
100
AcDbEntity
  8
0
 62
7
100
AcDbSpline
 70
8
 71
3
 72
8
 73
4
 74
0
 40
0
 40
0
 40
0
 40
0
 40
1
 40
1
 40
1
 40
1
 10
28.924997
 20
151.442064
 30
0.0
 10
28.460895
 20
151.174115
 30
0.0
 10
28.174997
 20
150.678924
 30
0.0
 10
28.174997
 20
150.143026
 30
0.0
  0
SPLINE
  5
156
100
AcDbEntity
  8
0
 62
7
100
AcDbSpline
 70
8
 71
3
 72
8
 73
4
 74
0
 40
0
 40
0
 40
0
 40
0
 40
1
 40
1
 40
1
 40
1
 10
28.174997
 20
150.143026
 30
0.0
 10
28.174997
 20
149.607128
 30
0.0
 10
28.460895
 20
149.111937
 30
0.0
 10
28.924997
 20
148.843988
 30
0.0
  0
SPLINE
  5
157
100
AcDbEntity
  8
0
 62
7
100
AcDbSpline
 70
8
 71
3
 72
8
 73
4
 74
0
 40
0
 40
0
 40
0
 40
0
 40
1
 40
1
 40
1
 40
1
 10
28.924997
 20
148.843988
 30
0.0
 10
29.389099
 20
148.576039
 30
0.0
 10
29.960895
 20
148.576039
 30
0.0
 10
30.424997
 20
148.843988
 30
0.0
  0
SPLINE
  5
158
100
AcDbEntity
  8
0
 62
7
100
AcDbSpline
 70
8
 71
3
 72
8
 73
4
 74
0
 40
0
 40
0
 40
0
 40
0
 40
1
 40
1
 40
1
 40
1
 10
30.424997
 20
148.843988
 30
0.0
 10
30.889099
 20
149.111937
 30
0.0
 10
31.174997
 20
149.607128
 30
0.0
 10
31.174997
 20
150.143026
 30
0.0
  0
LWPOLYLINE
  5
159
100
AcDbEntity
  8
0
 62
7
100
AcDbPolyline
 90
2
 70
0
 10
50.611900
 20
74.675010
 30
0.0
 10
43.738100
 20
74.675010
 30
0.0
  0
SPLINE
  5
15a
100
AcDbEntity
  8
0
 62
7
100
AcDbSpline
 70
8
 71
3
 72
8
 73
4
 74
0
 40
0
 40
0
 40
0
 40
0
 40
1
 40
1
 40
1
 40
1
 10
56.174999
 20
150.143026
 30
0.0
 10
56.174999
 20
150.678924
 30
0.0
 10
55.889101
 20
151.174115
 30
0.0
 10
55.424999
 20
151.442064
 30
0.0
  0
SPLINE
  5
15b
100
AcDbEntity
  8
0
 62
7
100
AcDbSpline
 70
8
 71
3
 72
8
 73
4
 74
0
 40
0
 40
0
 40
0
 40
0
 40
1
 40
1
 40
1
 40
1
 10
55.424999
 20
151.442064
 30
0.0
 10
54.960897
 20
151.710013
 30
0.0
 10
54.389101
 20
151.710013
 30
0.0
 10
53.924999
 20
151.442064
 30
0.0
  0
SPLINE
  5
15c
100
AcDbEntity
  8
0
 62
7
100
AcDbSpline
 70
8
 71
3
 72
8
 73
4
 74
0
 40
0
 40
0
 40
0
 40
0
 40
1
 40
1
 40
1
 40
1
 10
53.924999
 20
151.442064
 30
0.0
 10
53.460897
 20
151.174115
 30
0.0
 10
53.174999
 20
150.678924
 30
0.0
 10
53.174999
 20
150.143026
 30
0.0
  0
SPLINE
  5
15d
100
AcDbEntity
  8
0
 62
7
100
AcDbSpline
 70
8
 71
3
 72
8
 73
4
 74
0
 40
0
 40
0
 40
0
 40
0
 40
1
 40
1
 40
1
 40
1
 10
53.174999
 20
150.143026
 30
0.0
 10
53.174999
 20
149.607128
 30
0.0
 10
53.460897
 20
149.111937
 30
0.0
 10
53.924999
 20
148.843988
 30
0.0
  0
SPLINE
  5
15e
100
AcDbEntity
  8
0
 62
7
100
AcDbSpline
 70
8
 71
3
 72
8
 73
4
 74
0
 40
0
 40
0
 40
0
 40
0
 40
1
 40
1
 40
1
 40
1
 10
53.924999
 20
148.843988
 30
0.0
 10
54.389101
 20
148.576039
 30
0.0
 10
54.960897
 20
148.576039
 30
0.0
 10
55.424999
 20
148.843988
 30
0.0
  0
SPLINE
  5
15f
100
AcDbEntity
  8
0
 62
7
100
AcDbSpline
 70
8
 71
3
 72
8
 73
4
 74
0
 40
0
 40
0
 40
0
 40
0
 40
1
 40
1
 40
1
 40
1
 10
55.424999
 20
148.843988
 30
0.0
 10
55.889101
 20
149.111937
 30
0.0
 10
56.174999
 20
149.607128
 30
0.0
 10
56.174999
 20
150.143026
 30
0.0
  0
LWPOLYLINE
  5
160
100
AcDbEntity
  8
0
 62
7
100
AcDbPolyline
 90
1
 70
1
 10
31.174997
 20
150.143026
 30
0.0
  0
SPLINE
  5
161
100
AcDbEntity
  8
0
 62
7
100
AcDbSpline
 70
8
 71
3
 72
8
 73
4
 74
0
 40
0
 40
0
 40
0
 40
0
 40
1
 40
1
 40
1
 40
1
 10
36.050000
 20
145.143010
 30
0.0
 10
34.966235
 20
145.142990
 30
0.0
 10
34.036449
 20
145.915569
 30
0.0
 10
33.838000
 20
146.981010
 30
0.0
  0
LWPOLYLINE
  5
162
100
AcDbEntity
  8
0
 62
7
100
AcDbPolyline
 90
1
 70
1
 10
56.174999
 20
150.143026
 30
0.0
  0
LWPOLYLINE
  5
163
100
AcDbEntity
  8
0
 62
7
100
AcDbPolyline
 90
2
 70
0
 10
48.300000
 20
145.143010
 30
0.0
 10
36.050000
 20
145.143010
 30
0.0
  0
SPLINE
  5
164
100
AcDbEntity
  8
0
 62
7
100
AcDbSpline
 70
8
 71
3
 72
8
 73
4
 74
0
 40
0
 40
0
 40
0
 40
0
 40
1
 40
1
 40
1
 40
1
 10
50.512000
 20
146.981010
 30
0.0
 10
50.313551
 20
145.915569
 30
0.0
 10
49.383765
 20
145.142990
 30
0.0
 10
48.300000
 20
145.143010
 30
0.0
  0
SPLINE
  5
165
100
AcDbEntity
  8
0
 62
7
100
AcDbSpline
 70
8
 71
3
 72
8
 73
4
 74
0
 40
0
 40
0
 40
0
 40
0
 40
1
 40
1
 40
1
 40
1
 10
32.704500
 20
153.072010
 30
0.0
 10
32.609050
 20
153.583545
 30
0.0
 10
32.746197
 20
154.111025
 30
0.0
 10
33.078717
 20
154.511286
 30
0.0
  0
SPLINE
  5
166
100
AcDbEntity
  8
0
 62
7
100
AcDbSpline
 70
8
 71
3
 72
8
 73
4
 74
0
 40
0
 40
0
 40
0
 40
0
 40
1
 40
1
 40
1
 40
1
 10
33.078717
 20
154.511286
 30
0.0
 10
33.411237
 20
154.911547
 30
0.0
 10
33.904636
 20
155.143067
 30
0.0
 10
34.425000
 20
155.143010
 30
0.0
  0
LWPOLYLINE
  5
167
100
AcDbEntity
  8
0
 62
7
100
AcDbPolyline
 90
2
 70
0
 10
32.704500
 20
153.072010
 30
0.0
 10
33.838000
 20
146.981010
 30
0.0
  0
LWPOLYLINE
  5
168
100
AcDbEntity
  8
0
 62
7
100
AcDbPolyline
 90
2
 70
0
 10
51.645500
 20
153.072010
 30
0.0
 10
50.512000
 20
146.981010
 30
0.0
  0
SPLINE
  5
169
100
AcDbEntity
  8
0
 62
7
100
AcDbSpline
 70
8
 71
3
 72
8
 73
4
 74
0
 40
0
 40
0
 40
0
 40
0
 40
1
 40
1
 40
1
 40
1
 10
49.925000
 20
155.143010
 30
0.0
 10
50.445364
 20
155.143067
 30
0.0
 10
50.938763
 20
154.911547
 30
0.0
 10
51.271283
 20
154.511286
 30
0.0
  0
SPLINE
  5
16a
100
AcDbEntity
  8
0
 62
7
100
AcDbSpline
 70
8
 71
3
 72
8
 73
4
 74
0
 40
0
 40
0
 40
0
 40
0
 40
1
 40
1
 40
1
 40
1
 10
51.271283
 20
154.511286
 30
0.0
 10
51.603803
 20
154.111025
 30
0.0
 10
51.740950
 20
153.583545
 30
0.0
 10
51.645500
 20
153.072010
 30
0.0
  0
SPLINE
  5
16b
100
AcDbEntity
  8
0
 62
7
100
AcDbSpline
 70
8
 71
3
 72
8
 73
4
 74
0
 40
0
 40
0
 40
0
 40
0
 40
1
 40
1
 40
1
 40
1
 10
31.174997
 20
135.143025
 30
0.0
 10
31.174997
 20
135.678923
 30
0.0
 10
30.889099
 20
136.174114
 30
0.0
 10
30.424997
 20
136.442063
 30
0.0
  0
SPLINE
  5
16c
100
AcDbEntity
  8
0
 62
7
100
AcDbSpline
 70
8
 71
3
 72
8
 73
4
 74
0
 40
0
 40
0
 40
0
 40
0
 40
1
 40
1
 40
1
 40
1
 10
30.424997
 20
136.442063
 30
0.0
 10
29.960895
 20
136.710012
 30
0.0
 10
29.389099
 20
136.710012
 30
0.0
 10
28.924997
 20
136.442063
 30
0.0
  0
SPLINE
  5
16d
100
AcDbEntity
  8
0
 62
7
100
AcDbSpline
 70
8
 71
3
 72
8
 73
4
 74
0
 40
0
 40
0
 40
0
 40
0
 40
1
 40
1
 40
1
 40
1
 10
28.924997
 20
136.442063
 30
0.0
 10
28.460895
 20
136.174114
 30
0.0
 10
28.174997
 20
135.678923
 30
0.0
 10
28.174997
 20
135.143025
 30
0.0
  0
SPLINE
  5
16e
100
AcDbEntity
  8
0
 62
7
100
AcDbSpline
 70
8
 71
3
 72
8
 73
4
 74
0
 40
0
 40
0
 40
0
 40
0
 40
1
 40
1
 40
1
 40
1
 10
28.174997
 20
135.143025
 30
0.0
 10
28.174997
 20
134.607127
 30
0.0
 10
28.460895
 20
134.111936
 30
0.0
 10
28.924997
 20
133.843987
 30
0.0
  0
SPLINE
  5
16f
100
AcDbEntity
  8
0
 62
7
100
AcDbSpline
 70
8
 71
3
 72
8
 73
4
 74
0
 40
0
 40
0
 40
0
 40
0
 40
1
 40
1
 40
1
 40
1
 10
28.924997
 20
133.843987
 30
0.0
 10
29.389099
 20
133.576038
 30
0.0
 10
29.960895
 20
133.576038
 30
0.0
 10
30.424997
 20
133.843987
 30
0.0
  0
SPLINE
  5
170
100
AcDbEntity
  8
0
 62
7
100
AcDbSpline
 70
8
 71
3
 72
8
 73
4
 74
0
 40
0
 40
0
 40
0
 40
0
 40
1
 40
1
 40
1
 40
1
 10
30.424997
 20
133.843987
 30
0.0
 10
30.889099
 20
134.111936
 30
0.0
 10
31.174997
 20
134.607127
 30
0.0
 10
31.174997
 20
135.143025
 30
0.0
  0
LWPOLYLINE
  5
171
100
AcDbEntity
  8
0
 62
7
100
AcDbPolyline
 90
2
 70
0
 10
49.925000
 20
155.143010
 30
0.0
 10
34.425000
 20
155.143010
 30
0.0
  0
SPLINE
  5
172
100
AcDbEntity
  8
0
 62
7
100
AcDbSpline
 70
8
 71
3
 72
8
 73
4
 74
0
 40
0
 40
0
 40
0
 40
0
 40
1
 40
1
 40
1
 40
1
 10
36.050000
 20
130.143010
 30
0.0
 10
34.966235
 20
130.142990
 30
0.0
 10
34.036449
 20
130.915569
 30
0.0
 10
33.838000
 20
131.981010
 30
0.0
  0
LWPOLYLINE
  5
173
100
AcDbEntity
  8
0
 62
7
100
AcDbPolyline
 90
1
 70
1
 10
31.174997
 20
135.143025
 30
0.0
  0
LWPOLYLINE
  5
174
100
AcDbEntity
  8
0
 62
7
100
AcDbPolyline
 90
2
 70
0
 10
48.300000
 20
130.143010
 30
0.0
 10
36.050000
 20
130.143010
 30
0.0
  0
SPLINE
  5
175
100
AcDbEntity
  8
0
 62
7
100
AcDbSpline
 70
8
 71
3
 72
8
 73
4
 74
0
 40
0
 40
0
 40
0
 40
0
 40
1
 40
1
 40
1
 40
1
 10
50.512000
 20
131.981010
 30
0.0
 10
50.313551
 20
130.915569
 30
0.0
 10
49.383765
 20
130.142990
 30
0.0
 10
48.300000
 20
130.143010
 30
0.0
  0
SPLINE
  5
176
100
AcDbEntity
  8
0
 62
7
100
AcDbSpline
 70
8
 71
3
 72
8
 73
4
 74
0
 40
0
 40
0
 40
0
 40
0
 40
1
 40
1
 40
1
 40
1
 10
32.704500
 20
138.072010
 30
0.0
 10
32.609050
 20
138.583545
 30
0.0
 10
32.746197
 20
139.111025
 30
0.0
 10
33.078717
 20
139.511286
 30
0.0
  0
SPLINE
  5
177
100
AcDbEntity
  8
0
 62
7
100
AcDbSpline
 70
8
 71
3
 72
8
 73
4
 74
0
 40
0
 40
0
 40
0
 40
0
 40
1
 40
1
 40
1
 40
1
 10
33.078717
 20
139.511286
 30
0.0
 10
33.411237
 20
139.911547
 30
0.0
 10
33.904636
 20
140.143067
 30
0.0
 10
34.425000
 20
140.143010
 30
0.0
  0
LWPOLYLINE
  5
178
100
AcDbEntity
  8
0
 62
7
100
AcDbPolyline
 90
2
 70
0
 10
32.704500
 20
138.072010
 30
0.0
 10
33.838000
 20
131.981010
 30
0.0
  0
LWPOLYLINE
  5
179
100
AcDbEntity
  8
0
 62
7
100
AcDbPolyline
 90
2
 70
0
 10
51.645500
 20
138.072010
 30
0.0
 10
50.512000
 20
131.981010
 30
0.0
  0
SPLINE
  5
17a
100
AcDbEntity
  8
0
 62
7
100
AcDbSpline
 70
8
 71
3
 72
8
 73
4
 74
0
 40
0
 40
0
 40
0
 40
0
 40
1
 40
1
 40
1
 40
1
 10
49.925000
 20
140.143010
 30
0.0
 10
50.445364
 20
140.143067
 30
0.0
 10
50.938763
 20
139.911547
 30
0.0
 10
51.271283
 20
139.511286
 30
0.0
  0
SPLINE
  5
17b
100
AcDbEntity
  8
0
 62
7
100
AcDbSpline
 70
8
 71
3
 72
8
 73
4
 74
0
 40
0
 40
0
 40
0
 40
0
 40
1
 40
1
 40
1
 40
1
 10
51.271283
 20
139.511286
 30
0.0
 10
51.603803
 20
139.111025
 30
0.0
 10
51.740950
 20
138.583545
 30
0.0
 10
51.645500
 20
138.072010
 30
0.0
  0
LWPOLYLINE
  5
17c
100
AcDbEntity
  8
0
 62
7
100
AcDbPolyline
 90
2
 70
0
 10
49.925000
 20
140.143010
 30
0.0
 10
34.425000
 20
140.143010
 30
0.0
  0
LWPOLYLINE
  5
17d
100
AcDbEntity
  8
0
 62
7
100
AcDbPolyline
 90
2
 70
0
 10
56.175000
 20
22.675010
 30
0.0
 10
37.175000
 20
22.675010
 30
0.0
  0
LWPOLYLINE
  5
17e
100
AcDbEntity
  8
0
 62
7
100
AcDbPolyline
 90
2
 70
0
 10
56.175000
 20
9.675010
 30
0.0
 10
56.175000
 20
22.675010
 30
0.0
  0
SPLINE
  5
17f
100
AcDbEntity
  8
0
 62
7
100
AcDbSpline
 70
8
 71
3
 72
8
 73
4
 74
0
 40
0
 40
0
 40
0
 40
0
 40
1
 40
1
 40
1
 40
1
 10
43.738100
 20
49.675010
 30
0.0
 10
40.805367
 20
51.018957
 30
0.0
 10
38.925032
 20
53.949003
 30
0.0
 10
38.925032
 20
57.175010
 30
0.0
  0
SPLINE
  5
180
100
AcDbEntity
  8
0
 62
7
100
AcDbSpline
 70
8
 71
3
 72
8
 73
4
 74
0
 40
0
 40
0
 40
0
 40
0
 40
1
 40
1
 40
1
 40
1
 10
38.925032
 20
57.175010
 30
0.0
 10
38.925032
 20
60.401017
 30
0.0
 10
40.805367
 20
63.331063
 30
0.0
 10
43.738100
 20
64.675010
 30
0.0
  0
LWPOLYLINE
  5
181
100
AcDbEntity
  8
0
 62
7
100
AcDbPolyline
 90
3
 70
0
 10
37.175000
 20
22.675010
 30
0.0
 10
37.175000
 20
9.675010
 30
0.0
 10
56.175000
 20
9.675010
 30
0.0
  0
LWPOLYLINE
  5
182
100
AcDbEntity
  8
0
 62
7
100
AcDbPolyline
 90
2
 70
0
 10
50.611900
 20
49.675010
 30
0.0
 10
43.738100
 20
49.675010
 30
0.0
  0
SPLINE
  5
183
100
AcDbEntity
  8
0
 62
7
100
AcDbSpline
 70
8
 71
3
 72
8
 73
4
 74
0
 40
0
 40
0
 40
0
 40
0
 40
1
 40
1
 40
1
 40
1
 10
50.611900
 20
64.675010
 30
0.0
 10
53.544633
 20
63.331063
 30
0.0
 10
55.424968
 20
60.401017
 30
0.0
 10
55.424968
 20
57.175010
 30
0.0
  0
SPLINE
  5
184
100
AcDbEntity
  8
0
 62
7
100
AcDbSpline
 70
8
 71
3
 72
8
 73
4
 74
0
 40
0
 40
0
 40
0
 40
0
 40
1
 40
1
 40
1
 40
1
 10
55.424968
 20
57.175010
 30
0.0
 10
55.424968
 20
53.949003
 30
0.0
 10
53.544633
 20
51.018957
 30
0.0
 10
50.611900
 20
49.675010
 30
0.0
  0
SPLINE
  5
185
100
AcDbEntity
  8
0
 62
7
100
AcDbSpline
 70
8
 71
3
 72
8
 73
4
 74
0
 40
0
 40
0
 40
0
 40
0
 40
1
 40
1
 40
1
 40
1
 10
18.738100
 20
49.675010
 30
0.0
 10
15.805367
 20
51.018957
 30
0.0
 10
13.925032
 20
53.949003
 30
0.0
 10
13.925032
 20
57.175010
 30
0.0
  0
SPLINE
  5
186
100
AcDbEntity
  8
0
 62
7
100
AcDbSpline
 70
8
 71
3
 72
8
 73
4
 74
0
 40
0
 40
0
 40
0
 40
0
 40
1
 40
1
 40
1
 40
1
 10
13.925032
 20
57.175010
 30
0.0
 10
13.925032
 20
60.401017
 30
0.0
 10
15.805367
 20
63.331063
 30
0.0
 10
18.738100
 20
64.675010
 30
0.0
  0
LWPOLYLINE
  5
187
100
AcDbEntity
  8
0
 62
7
100
AcDbPolyline
 90
2
 70
0
 10
50.611900
 20
64.675010
 30
0.0
 10
43.738100
 20
64.675010
 30
0.0
  0
LWPOLYLINE
  5
188
100
AcDbEntity
  8
0
 62
7
100
AcDbPolyline
 90
2
 70
0
 10
25.611900
 20
49.675010
 30
0.0
 10
18.738100
 20
49.675010
 30
0.0
  0
SPLINE
  5
189
100
AcDbEntity
  8
0
 62
7
100
AcDbSpline
 70
8
 71
3
 72
8
 73
4
 74
0
 40
0
 40
0
 40
0
 40
0
 40
1
 40
1
 40
1
 40
1
 10
25.611900
 20
64.675010
 30
0.0
 10
28.544633
 20
63.331063
 30
0.0
 10
30.424968
 20
60.401017
 30
0.0
 10
30.424968
 20
57.175010
 30
0.0
  0
SPLINE
  5
18a
100
AcDbEntity
  8
0
 62
7
100
AcDbSpline
 70
8
 71
3
 72
8
 73
4
 74
0
 40
0
 40
0
 40
0
 40
0
 40
1
 40
1
 40
1
 40
1
 10
30.424968
 20
57.175010
 30
0.0
 10
30.424968
 20
53.949003
 30
0.0
 10
28.544633
 20
51.018957
 30
0.0
 10
25.611900
 20
49.675010
 30
0.0
  0
SPLINE
  5
18b
100
AcDbEntity
  8
0
 62
7
100
AcDbSpline
 70
8
 71
3
 72
8
 73
4
 74
0
 40
0
 40
0
 40
0
 40
0
 40
1
 40
1
 40
1
 40
1
 10
26.674997
 20
16.175010
 30
0.0
 10
26.674997
 20
17.782705
 30
0.0
 10
25.817302
 20
19.268277
 30
0.0
 10
24.424997
 20
20.072124
 30
0.0
  0
SPLINE
  5
18c
100
AcDbEntity
  8
0
 62
7
100
AcDbSpline
 70
8
 71
3
 72
8
 73
4
 74
0
 40
0
 40
0
 40
0
 40
0
 40
1
 40
1
 40
1
 40
1
 10
24.424997
 20
20.072124
 30
0.0
 10
23.032692
 20
20.875972
 30
0.0
 10
21.317302
 20
20.875972
 30
0.0
 10
19.924997
 20
20.072124
 30
0.0
  0
SPLINE
  5
18d
100
AcDbEntity
  8
0
 62
7
100
AcDbSpline
 70
8
 71
3
 72
8
 73
4
 74
0
 40
0
 40
0
 40
0
 40
0
 40
1
 40
1
 40
1
 40
1
 10
19.924997
 20
20.072124
 30
0.0
 10
18.532692
 20
19.268277
 30
0.0
 10
17.674997
 20
17.782705
 30
0.0
 10
17.674997
 20
16.175010
 30
0.0
  0
SPLINE
  5
18e
100
AcDbEntity
  8
0
 62
7
100
AcDbSpline
 70
8
 71
3
 72
8
 73
4
 74
0
 40
0
 40
0
 40
0
 40
0
 40
1
 40
1
 40
1
 40
1
 10
17.674997
 20
16.175010
 30
0.0
 10
17.674997
 20
14.567315
 30
0.0
 10
18.532692
 20
13.081743
 30
0.0
 10
19.924997
 20
12.277896
 30
0.0
  0
SPLINE
  5
18f
100
AcDbEntity
  8
0
 62
7
100
AcDbSpline
 70
8
 71
3
 72
8
 73
4
 74
0
 40
0
 40
0
 40
0
 40
0
 40
1
 40
1
 40
1
 40
1
 10
19.924997
 20
12.277896
 30
0.0
 10
21.317302
 20
11.474048
 30
0.0
 10
23.032692
 20
11.474048
 30
0.0
 10
24.424997
 20
12.277896
 30
0.0
  0
SPLINE
  5
190
100
AcDbEntity
  8
0
 62
7
100
AcDbSpline
 70
8
 71
3
 72
8
 73
4
 74
0
 40
0
 40
0
 40
0
 40
0
 40
1
 40
1
 40
1
 40
1
 10
24.424997
 20
12.277896
 30
0.0
 10
25.817302
 20
13.081743
 30
0.0
 10
26.674997
 20
14.567315
 30
0.0
 10
26.674997
 20
16.175010
 30
0.0
  0
LWPOLYLINE
  5
191
100
AcDbEntity
  8
0
 62
7
100
AcDbPolyline
 90
2
 70
0
 10
25.611900
 20
64.675010
 30
0.0
 10
18.738100
 20
64.675010
 30
0.0
  0
SPLINE
  5
192
100
AcDbEntity
  8
0
 62
7
100
AcDbSpline
 70
8
 71
3
 72
8
 73
4
 74
0
 40
0
 40
0
 40
0
 40
0
 40
1
 40
1
 40
1
 40
1
 10
21.641994
 20
154.675009
 30
0.0
 10
21.641994
 20
155.210907
 30
0.0
 10
21.356096
 20
155.706098
 30
0.0
 10
20.891994
 20
155.974047
 30
0.0
  0
SPLINE
  5
193
100
AcDbEntity
  8
0
 62
7
100
AcDbSpline
 70
8
 71
3
 72
8
 73
4
 74
0
 40
0
 40
0
 40
0
 40
0
 40
1
 40
1
 40
1
 40
1
 10
20.891994
 20
155.974047
 30
0.0
 10
20.427892
 20
156.241996
 30
0.0
 10
19.856096
 20
156.241996
 30
0.0
 10
19.391994
 20
155.974047
 30
0.0
  0
SPLINE
  5
194
100
AcDbEntity
  8
0
 62
7
100
AcDbSpline
 70
8
 71
3
 72
8
 73
4
 74
0
 40
0
 40
0
 40
0
 40
0
 40
1
 40
1
 40
1
 40
1
 10
19.391994
 20
155.974047
 30
0.0
 10
18.927892
 20
155.706098
 30
0.0
 10
18.641994
 20
155.210907
 30
0.0
 10
18.641994
 20
154.675009
 30
0.0
  0
SPLINE
  5
195
100
AcDbEntity
  8
0
 62
7
100
AcDbSpline
 70
8
 71
3
 72
8
 73
4
 74
0
 40
0
 40
0
 40
0
 40
0
 40
1
 40
1
 40
1
 40
1
 10
18.641994
 20
154.675009
 30
0.0
 10
18.641994
 20
154.139111
 30
0.0
 10
18.927892
 20
153.643920
 30
0.0
 10
19.391994
 20
153.375971
 30
0.0
  0
SPLINE
  5
196
100
AcDbEntity
  8
0
 62
7
100
AcDbSpline
 70
8
 71
3
 72
8
 73
4
 74
0
 40
0
 40
0
 40
0
 40
0
 40
1
 40
1
 40
1
 40
1
 10
19.391994
 20
153.375971
 30
0.0
 10
19.856096
 20
153.108022
 30
0.0
 10
20.427892
 20
153.108022
 30
0.0
 10
20.891994
 20
153.375971
 30
0.0
  0
SPLINE
  5
197
100
AcDbEntity
  8
0
 62
7
100
AcDbSpline
 70
8
 71
3
 72
8
 73
4
 74
0
 40
0
 40
0
 40
0
 40
0
 40
1
 40
1
 40
1
 40
1
 10
20.891994
 20
153.375971
 30
0.0
 10
21.356096
 20
153.643920
 30
0.0
 10
21.641994
 20
154.139111
 30
0.0
 10
21.641994
 20
154.675009
 30
0.0
  0
LWPOLYLINE
  5
198
100
AcDbEntity
  8
0
 62
7
100
AcDbPolyline
 90
1
 70
1
 10
26.674997
 20
16.175010
 30
0.0
  0
LWPOLYLINE
  5
199
100
AcDbEntity
  8
0
 62
7
100
AcDbPolyline
 90
1
 70
1
 10
21.641994
 20
154.675009
 30
0.0
  0
LWPOLYLINE
  5
19a
100
AcDbEntity
  8
0
 62
7
100
AcDbPolyline
 90
2
 70
0
 10
59.375000
 20
7.675010
 30
0.0
 10
7.675000
 20
7.675010
 30
0.0
  0
LWPOLYLINE
  5
19b
100
AcDbEntity
  8
0
 62
7
100
AcDbPolyline
 90
2
 70
0
 10
59.375000
 20
166.675010
 30
0.0
 10
59.375000
 20
7.675010
 30
0.0
  0
LWPOLYLINE
  5
19c
100
AcDbEntity
  8
0
 62
7
100
AcDbPolyline
 90
2
 70
0
 10
7.675000
 20
166.675010
 30
0.0
 10
59.375000
 20
166.675010
 30
0.0
  0
LWPOLYLINE
  5
19d
100
AcDbEntity
  8
0
 62
7
100
AcDbPolyline
 90
2
 70
0
 10
7.675000
 20
7.675010
 30
0.0
 10
7.675000
 20
166.675010
 30
0.0
  0
ENDSEC
  0
SECTION
  2
OBJECTS
  0
DICTIONARY
  5
C
330
0
100
AcDbDictionary
  3
ACAD_GROUP
350
D
  3
ACAD_MLINESTYLE
350
17
  0
DICTIONARY
  5
D
330
C
100
AcDbDictionary
  0
DICTIONARY
  5
1A
330
C
100
AcDbDictionary
  0
DICTIONARY
  5
17
330
C
100
AcDbDictionary
  3
STANDARD
350
18
  0
DICTIONARY
  5
19
330
C
100
AcDbDictionary
  0
ENDSEC
  0
EOF
