G04 #@! TF.GenerationSoftware,KiCad,Pcbnew,(5.0.2)-1*
G04 #@! TF.CreationDate,2019-11-07T20:44:56+01:00*
G04 #@! TF.ProjectId,MPCNC Nano Estlcam Shield,4d50434e-4320-44e6-916e-6f204573746c,1.4*
G04 #@! TF.SameCoordinates,Original*
G04 #@! TF.FileFunction,Copper,L1,Top*
G04 #@! TF.FilePolarity,Positive*
%FSLAX46Y46*%
G04 Gerber Fmt 4.6, Leading zero omitted, Abs format (unit mm)*
G04 Created by KiCad (PCBNEW (5.0.2)-1) date 07.11.2019 20:44:56*
%MOMM*%
%LPD*%
G01*
G04 APERTURE LIST*
G04 #@! TA.AperFunction,ComponentPad*
%ADD10C,1.800000*%
G04 #@! TD*
G04 #@! TA.AperFunction,ComponentPad*
%ADD11R,1.800000X1.800000*%
G04 #@! TD*
G04 #@! TA.AperFunction,ComponentPad*
%ADD12O,2.000000X1.905000*%
G04 #@! TD*
G04 #@! TA.AperFunction,ComponentPad*
%ADD13R,2.000000X1.905000*%
G04 #@! TD*
G04 #@! TA.AperFunction,ComponentPad*
%ADD14C,1.600000*%
G04 #@! TD*
G04 #@! TA.AperFunction,ComponentPad*
%ADD15R,1.600000X1.600000*%
G04 #@! TD*
G04 #@! TA.AperFunction,ComponentPad*
%ADD16R,3.000000X3.000000*%
G04 #@! TD*
G04 #@! TA.AperFunction,ComponentPad*
%ADD17C,7.500000*%
G04 #@! TD*
G04 #@! TA.AperFunction,ComponentPad*
%ADD18O,1.600000X1.600000*%
G04 #@! TD*
G04 #@! TA.AperFunction,ComponentPad*
%ADD19R,3.200000X3.200000*%
G04 #@! TD*
G04 #@! TA.AperFunction,ComponentPad*
%ADD20O,3.200000X3.200000*%
G04 #@! TD*
G04 #@! TA.AperFunction,ComponentPad*
%ADD21C,1.440000*%
G04 #@! TD*
G04 #@! TA.AperFunction,ComponentPad*
%ADD22R,2.500000X2.500000*%
G04 #@! TD*
G04 #@! TA.AperFunction,ComponentPad*
%ADD23C,2.500000*%
G04 #@! TD*
G04 #@! TA.AperFunction,ComponentPad*
%ADD24O,1.700000X1.700000*%
G04 #@! TD*
G04 #@! TA.AperFunction,ComponentPad*
%ADD25R,1.700000X1.700000*%
G04 #@! TD*
G04 #@! TA.AperFunction,ComponentPad*
%ADD26O,2.200000X1.740000*%
G04 #@! TD*
G04 #@! TA.AperFunction,Conductor*
%ADD27C,0.100000*%
G04 #@! TD*
G04 #@! TA.AperFunction,ComponentPad*
%ADD28C,1.740000*%
G04 #@! TD*
G04 #@! TA.AperFunction,ViaPad*
%ADD29C,0.800000*%
G04 #@! TD*
G04 #@! TA.AperFunction,Conductor*
%ADD30C,0.800000*%
G04 #@! TD*
G04 #@! TA.AperFunction,Conductor*
%ADD31C,0.400000*%
G04 #@! TD*
G04 #@! TA.AperFunction,Conductor*
%ADD32C,1.000000*%
G04 #@! TD*
G04 #@! TA.AperFunction,Conductor*
%ADD33C,2.500000*%
G04 #@! TD*
G04 APERTURE END LIST*
D10*
G04 #@! TO.P,D7,2*
G04 #@! TO.N,/D7_R_LED*
X181520000Y-117220000D03*
D11*
G04 #@! TO.P,D7,1*
G04 #@! TO.N,GND*
X181520000Y-119760000D03*
G04 #@! TD*
D10*
G04 #@! TO.P,D6,2*
G04 #@! TO.N,/D6_R_LED*
X186600000Y-119760000D03*
D11*
G04 #@! TO.P,D6,1*
G04 #@! TO.N,GND*
X186600000Y-122300000D03*
G04 #@! TD*
D10*
G04 #@! TO.P,D5,2*
G04 #@! TO.N,/D5_R_LED*
X191680000Y-117220000D03*
D11*
G04 #@! TO.P,D5,1*
G04 #@! TO.N,GND*
X191680000Y-119760000D03*
G04 #@! TD*
D10*
G04 #@! TO.P,D4,2*
G04 #@! TO.N,VMot*
X116115000Y-101980000D03*
D11*
G04 #@! TO.P,D4,1*
G04 #@! TO.N,/D4_R_LED*
X113575000Y-101980000D03*
G04 #@! TD*
D10*
G04 #@! TO.P,D1,2*
G04 #@! TO.N,+5V*
X197395000Y-96900000D03*
D11*
G04 #@! TO.P,D1,1*
G04 #@! TO.N,/D1_R_LED*
X199935000Y-96900000D03*
G04 #@! TD*
D12*
G04 #@! TO.P,U6,3*
G04 #@! TO.N,+5V*
X178980000Y-91185000D03*
G04 #@! TO.P,U6,2*
G04 #@! TO.N,GND*
X178980000Y-93725000D03*
D13*
G04 #@! TO.P,U6,1*
G04 #@! TO.N,+12V*
X178980000Y-96265000D03*
G04 #@! TD*
D14*
G04 #@! TO.P,C6,2*
G04 #@! TO.N,GND*
X163105000Y-76040000D03*
D15*
G04 #@! TO.P,C6,1*
G04 #@! TO.N,+5V*
X163105000Y-74040000D03*
G04 #@! TD*
D14*
G04 #@! TO.P,C5,2*
G04 #@! TO.N,GND*
X163105000Y-91725000D03*
D15*
G04 #@! TO.P,C5,1*
G04 #@! TO.N,+12V*
X163105000Y-93725000D03*
G04 #@! TD*
D14*
G04 #@! TO.P,C7,2*
G04 #@! TO.N,GND*
X168185000Y-67730000D03*
G04 #@! TO.P,C7,1*
G04 #@! TO.N,+5V*
X168185000Y-70230000D03*
G04 #@! TD*
D16*
G04 #@! TO.P,A5,4*
G04 #@! TO.N,GND*
X161195000Y-117875000D03*
G04 #@! TO.P,A5,3*
G04 #@! TO.N,+12V*
X161195000Y-100075000D03*
G04 #@! TO.P,A5,2*
G04 #@! TO.N,GND*
X121195000Y-117855000D03*
G04 #@! TO.P,A5,1*
G04 #@! TO.N,VMot*
X121182300Y-100062300D03*
G04 #@! TD*
D17*
G04 #@! TO.P,H3,1*
G04 #@! TO.N,N/C*
X217505000Y-45350000D03*
G04 #@! TD*
G04 #@! TO.P,H1,1*
G04 #@! TO.N,N/C*
X65505000Y-137350000D03*
G04 #@! TD*
G04 #@! TO.P,H2,1*
G04 #@! TO.N,N/C*
X217505000Y-137350000D03*
G04 #@! TD*
G04 #@! TO.P,H4,1*
G04 #@! TO.N,N/C*
X65505000Y-45350000D03*
G04 #@! TD*
D18*
G04 #@! TO.P,R7,2*
G04 #@! TO.N,/IN3_R_LED*
X145325000Y-67690000D03*
D14*
G04 #@! TO.P,R7,1*
G04 #@! TO.N,+5V*
X152945000Y-67690000D03*
G04 #@! TD*
D18*
G04 #@! TO.P,R8,2*
G04 #@! TO.N,/IN4_R_LED*
X145325000Y-62610000D03*
D14*
G04 #@! TO.P,R8,1*
G04 #@! TO.N,+5V*
X152945000Y-62610000D03*
G04 #@! TD*
D15*
G04 #@! TO.P,C1,1*
G04 #@! TO.N,Spindle_Speed_Analog_0-5V*
X186473000Y-90550000D03*
D14*
G04 #@! TO.P,C1,2*
G04 #@! TO.N,/C1_to_JP16*
X186473000Y-94050000D03*
G04 #@! TD*
D15*
G04 #@! TO.P,C3,1*
G04 #@! TO.N,VMot*
X77380000Y-79120000D03*
D14*
G04 #@! TO.P,C3,2*
G04 #@! TO.N,GND*
X77380000Y-75620000D03*
G04 #@! TD*
D15*
G04 #@! TO.P,C4,1*
G04 #@! TO.N,VMot*
X74205000Y-105155000D03*
D14*
G04 #@! TO.P,C4,2*
G04 #@! TO.N,GND*
X74205000Y-101655000D03*
G04 #@! TD*
D15*
G04 #@! TO.P,C2,1*
G04 #@! TO.N,VMot*
X77380000Y-51815000D03*
D14*
G04 #@! TO.P,C2,2*
G04 #@! TO.N,GND*
X77380000Y-48315000D03*
G04 #@! TD*
D18*
G04 #@! TO.P,U5,16*
G04 #@! TO.N,/OUT1*
X203745000Y-104520000D03*
G04 #@! TO.P,U5,8*
G04 #@! TO.N,GND*
X196125000Y-122300000D03*
G04 #@! TO.P,U5,15*
G04 #@! TO.N,/OUT2*
X203745000Y-107060000D03*
G04 #@! TO.P,U5,7*
G04 #@! TO.N,N/C*
X196125000Y-119760000D03*
G04 #@! TO.P,U5,14*
G04 #@! TO.N,/OUT3*
X203745000Y-109600000D03*
G04 #@! TO.P,U5,6*
G04 #@! TO.N,N/C*
X196125000Y-117220000D03*
G04 #@! TO.P,U5,13*
X203745000Y-112140000D03*
G04 #@! TO.P,U5,5*
X196125000Y-114680000D03*
G04 #@! TO.P,U5,12*
X203745000Y-114680000D03*
G04 #@! TO.P,U5,4*
X196125000Y-112140000D03*
G04 #@! TO.P,U5,11*
X203745000Y-117220000D03*
G04 #@! TO.P,U5,3*
G04 #@! TO.N,/A3(D4)*
X196125000Y-109600000D03*
G04 #@! TO.P,U5,10*
G04 #@! TO.N,N/C*
X203745000Y-119760000D03*
G04 #@! TO.P,U5,2*
G04 #@! TO.N,/A2(D2)*
X196125000Y-107060000D03*
G04 #@! TO.P,U5,9*
G04 #@! TO.N,/COM*
X203745000Y-122300000D03*
D15*
G04 #@! TO.P,U5,1*
G04 #@! TO.N,/A1(D3)*
X196125000Y-104520000D03*
G04 #@! TD*
D18*
G04 #@! TO.P,U2,16*
G04 #@! TO.N,/E1(D8)*
X134530000Y-77850000D03*
G04 #@! TO.P,U2,8*
G04 #@! TO.N,/IN4*
X142150000Y-60070000D03*
G04 #@! TO.P,U2,15*
G04 #@! TO.N,GND*
X134530000Y-75310000D03*
G04 #@! TO.P,U2,7*
G04 #@! TO.N,/IN4_R_LED*
X142150000Y-62610000D03*
G04 #@! TO.P,U2,14*
G04 #@! TO.N,/E2(D9)*
X134530000Y-72770000D03*
G04 #@! TO.P,U2,6*
G04 #@! TO.N,/IN3*
X142150000Y-65150000D03*
G04 #@! TO.P,U2,13*
G04 #@! TO.N,GND*
X134530000Y-70230000D03*
G04 #@! TO.P,U2,5*
G04 #@! TO.N,/IN3_R_LED*
X142150000Y-67690000D03*
G04 #@! TO.P,U2,12*
G04 #@! TO.N,/E3(D10)*
X134530000Y-67690000D03*
G04 #@! TO.P,U2,4*
G04 #@! TO.N,/IN2*
X142150000Y-70230000D03*
G04 #@! TO.P,U2,11*
G04 #@! TO.N,GND*
X134530000Y-65150000D03*
G04 #@! TO.P,U2,3*
G04 #@! TO.N,/IN2_R_LED*
X142150000Y-72770000D03*
G04 #@! TO.P,U2,10*
G04 #@! TO.N,/E4(D11)*
X134530000Y-62610000D03*
G04 #@! TO.P,U2,2*
G04 #@! TO.N,/IN1*
X142150000Y-75310000D03*
G04 #@! TO.P,U2,9*
G04 #@! TO.N,GND*
X134530000Y-60070000D03*
D15*
G04 #@! TO.P,U2,1*
G04 #@! TO.N,/IN1_R_LED*
X142150000Y-77850000D03*
G04 #@! TD*
D18*
G04 #@! TO.P,U3,16*
G04 #@! TO.N,/E5(D12)*
X127545000Y-87375000D03*
G04 #@! TO.P,U3,8*
G04 #@! TO.N,/IN8*
X145325000Y-94995000D03*
G04 #@! TO.P,U3,15*
G04 #@! TO.N,GND*
X130085000Y-87375000D03*
G04 #@! TO.P,U3,7*
G04 #@! TO.N,/IN8_R_LED*
X142785000Y-94995000D03*
G04 #@! TO.P,U3,14*
G04 #@! TO.N,/E6(D13)*
X132625000Y-87375000D03*
G04 #@! TO.P,U3,6*
G04 #@! TO.N,/IN7*
X140245000Y-94995000D03*
G04 #@! TO.P,U3,13*
G04 #@! TO.N,GND*
X135165000Y-87375000D03*
G04 #@! TO.P,U3,5*
G04 #@! TO.N,/IN7_R_LED*
X137705000Y-94995000D03*
G04 #@! TO.P,U3,12*
G04 #@! TO.N,/E7(D6)*
X137705000Y-87375000D03*
G04 #@! TO.P,U3,4*
G04 #@! TO.N,/IN6*
X135165000Y-94995000D03*
G04 #@! TO.P,U3,11*
G04 #@! TO.N,GND*
X140245000Y-87375000D03*
G04 #@! TO.P,U3,3*
G04 #@! TO.N,/IN6_R_LED*
X132625000Y-94995000D03*
G04 #@! TO.P,U3,10*
G04 #@! TO.N,/E8(D7)*
X142785000Y-87375000D03*
G04 #@! TO.P,U3,2*
G04 #@! TO.N,/IN5*
X130085000Y-94995000D03*
G04 #@! TO.P,U3,9*
G04 #@! TO.N,GND*
X145325000Y-87375000D03*
D15*
G04 #@! TO.P,U3,1*
G04 #@! TO.N,/IN5_R_LED*
X127545000Y-94995000D03*
G04 #@! TD*
D18*
G04 #@! TO.P,U4,16*
G04 #@! TO.N,/FOR*
X203110000Y-67055000D03*
G04 #@! TO.P,U4,8*
G04 #@! TO.N,N/C*
X185330000Y-59435000D03*
G04 #@! TO.P,U4,15*
G04 #@! TO.N,/DCM*
X200570000Y-67055000D03*
G04 #@! TO.P,U4,7*
G04 #@! TO.N,N/C*
X187870000Y-59435000D03*
G04 #@! TO.P,U4,14*
X198030000Y-67055000D03*
G04 #@! TO.P,U4,6*
X190410000Y-59435000D03*
G04 #@! TO.P,U4,13*
X195490000Y-67055000D03*
G04 #@! TO.P,U4,5*
X192950000Y-59435000D03*
G04 #@! TO.P,U4,12*
X192950000Y-67055000D03*
G04 #@! TO.P,U4,4*
X195490000Y-59435000D03*
G04 #@! TO.P,U4,11*
X190410000Y-67055000D03*
G04 #@! TO.P,U4,3*
X198030000Y-59435000D03*
G04 #@! TO.P,U4,10*
X187870000Y-67055000D03*
G04 #@! TO.P,U4,2*
G04 #@! TO.N,/SPINDEL_ON_OFF_R_LED*
X200570000Y-59435000D03*
G04 #@! TO.P,U4,9*
G04 #@! TO.N,N/C*
X185330000Y-67055000D03*
D15*
G04 #@! TO.P,U4,1*
G04 #@! TO.N,/Spindle_ON_OFF*
X203110000Y-59435000D03*
G04 #@! TD*
D18*
G04 #@! TO.P,U7,8*
G04 #@! TO.N,+5V*
X171360000Y-70230000D03*
G04 #@! TO.P,U7,4*
G04 #@! TO.N,GND*
X178980000Y-77850000D03*
G04 #@! TO.P,U7,7*
G04 #@! TO.N,/SCK*
X173900000Y-70230000D03*
G04 #@! TO.P,U7,3*
G04 #@! TO.N,Spindle_Speed_Analog_0-5V*
X176440000Y-77850000D03*
G04 #@! TO.P,U7,6*
G04 #@! TO.N,/MISO*
X176440000Y-70230000D03*
G04 #@! TO.P,U7,2*
G04 #@! TO.N,/SERVO_PPM*
X173900000Y-77850000D03*
G04 #@! TO.P,U7,5*
G04 #@! TO.N,/MOSI*
X178980000Y-70230000D03*
D15*
G04 #@! TO.P,U7,1*
G04 #@! TO.N,/RESET_ATtiny*
X171360000Y-77850000D03*
G04 #@! TD*
D18*
G04 #@! TO.P,U1,8*
G04 #@! TO.N,+12V*
X198665000Y-79755000D03*
G04 #@! TO.P,U1,4*
G04 #@! TO.N,GND*
X191045000Y-87375000D03*
G04 #@! TO.P,U1,7*
G04 #@! TO.N,/VI*
X198665000Y-82295000D03*
G04 #@! TO.P,U1,3*
G04 #@! TO.N,N/C*
X191045000Y-84835000D03*
G04 #@! TO.P,U1,6*
G04 #@! TO.N,/5V_10V*
X198665000Y-84835000D03*
G04 #@! TO.P,U1,2*
G04 #@! TO.N,N/C*
X191045000Y-82295000D03*
G04 #@! TO.P,U1,5*
G04 #@! TO.N,Spindle_Speed_Analog_0-5V*
X198665000Y-87375000D03*
D15*
G04 #@! TO.P,U1,1*
G04 #@! TO.N,N/C*
X191045000Y-79755000D03*
G04 #@! TD*
D19*
G04 #@! TO.P,D2,1*
G04 #@! TO.N,VMot*
X115480000Y-107695000D03*
D20*
G04 #@! TO.P,D2,2*
G04 #@! TO.N,VDC*
X115480000Y-122935000D03*
G04 #@! TD*
D19*
G04 #@! TO.P,D3,1*
G04 #@! TO.N,VMot*
X109130000Y-107695000D03*
D20*
G04 #@! TO.P,D3,2*
G04 #@! TO.N,VDC*
X109130000Y-122935000D03*
G04 #@! TD*
D18*
G04 #@! TO.P,R12,2*
G04 #@! TO.N,/IN8_R_LED*
X166915000Y-115315000D03*
D14*
G04 #@! TO.P,R12,1*
G04 #@! TO.N,+5V*
X166915000Y-122935000D03*
G04 #@! TD*
D18*
G04 #@! TO.P,R4,2*
G04 #@! TO.N,/SPINDEL_ON_OFF_R_LED*
X201205000Y-55350000D03*
D14*
G04 #@! TO.P,R4,1*
G04 #@! TO.N,GND*
X193585000Y-55350000D03*
G04 #@! TD*
D18*
G04 #@! TO.P,R2,2*
G04 #@! TO.N,/RV1_R2*
X209460000Y-87375000D03*
D14*
G04 #@! TO.P,R2,1*
G04 #@! TO.N,GND*
X201840000Y-87375000D03*
G04 #@! TD*
D18*
G04 #@! TO.P,R1,2*
G04 #@! TO.N,Spindle_Speed_Analog_0-5V*
X183933000Y-82930000D03*
D14*
G04 #@! TO.P,R1,1*
G04 #@! TO.N,/Spindle_PWM(D5)*
X176313000Y-82930000D03*
G04 #@! TD*
D18*
G04 #@! TO.P,R5,2*
G04 #@! TO.N,/IN1_R_LED*
X145325000Y-77850000D03*
D14*
G04 #@! TO.P,R5,1*
G04 #@! TO.N,+5V*
X152945000Y-77850000D03*
G04 #@! TD*
D18*
G04 #@! TO.P,R6,2*
G04 #@! TO.N,/IN2_R_LED*
X145325000Y-72770000D03*
D14*
G04 #@! TO.P,R6,1*
G04 #@! TO.N,+5V*
X152945000Y-72770000D03*
G04 #@! TD*
D18*
G04 #@! TO.P,R9,2*
G04 #@! TO.N,/IN5_R_LED*
X128815000Y-122935000D03*
D14*
G04 #@! TO.P,R9,1*
G04 #@! TO.N,+5V*
X121195000Y-122935000D03*
G04 #@! TD*
D18*
G04 #@! TO.P,R11,2*
G04 #@! TO.N,/IN7_R_LED*
X161835000Y-122935000D03*
D14*
G04 #@! TO.P,R11,1*
G04 #@! TO.N,+5V*
X154215000Y-122935000D03*
G04 #@! TD*
D18*
G04 #@! TO.P,R13,2*
G04 #@! TO.N,+5V*
X192315000Y-70865000D03*
D14*
G04 #@! TO.P,R13,1*
G04 #@! TO.N,/RESET_ATtiny*
X184695000Y-70865000D03*
G04 #@! TD*
D18*
G04 #@! TO.P,R14,2*
G04 #@! TO.N,/D1_R_LED*
X188505000Y-103885000D03*
D14*
G04 #@! TO.P,R14,1*
G04 #@! TO.N,GND*
X180885000Y-103885000D03*
G04 #@! TD*
D18*
G04 #@! TO.P,R15,2*
G04 #@! TO.N,GND*
X109130000Y-96265000D03*
D14*
G04 #@! TO.P,R15,1*
G04 #@! TO.N,/D4_R_LED*
X109130000Y-103885000D03*
G04 #@! TD*
D18*
G04 #@! TO.P,R16,2*
G04 #@! TO.N,/D5_R_LED*
X191680000Y-114680000D03*
D14*
G04 #@! TO.P,R16,1*
G04 #@! TO.N,/A1(D3)*
X191680000Y-107060000D03*
G04 #@! TD*
D18*
G04 #@! TO.P,R17,2*
G04 #@! TO.N,/D6_R_LED*
X186600000Y-117220000D03*
D14*
G04 #@! TO.P,R17,1*
G04 #@! TO.N,/A2(D2)*
X186600000Y-109600000D03*
G04 #@! TD*
D18*
G04 #@! TO.P,R18,2*
G04 #@! TO.N,/A3(D4)*
X181520000Y-107060000D03*
D14*
G04 #@! TO.P,R18,1*
G04 #@! TO.N,/D7_R_LED*
X181520000Y-114680000D03*
G04 #@! TD*
D18*
G04 #@! TO.P,R3,2*
G04 #@! TO.N,/VI*
X201840000Y-82295000D03*
D14*
G04 #@! TO.P,R3,1*
G04 #@! TO.N,/R3_RV1*
X209460000Y-82295000D03*
G04 #@! TD*
D18*
G04 #@! TO.P,R10,2*
G04 #@! TO.N,/IN6_R_LED*
X145325000Y-122935000D03*
D14*
G04 #@! TO.P,R10,1*
G04 #@! TO.N,+5V*
X137705000Y-122935000D03*
G04 #@! TD*
D21*
G04 #@! TO.P,RV1,3*
G04 #@! TO.N,/RV1_R2*
X216445000Y-87375000D03*
G04 #@! TO.P,RV1,2*
G04 #@! TO.N,/5V_10V*
X216445000Y-84835000D03*
G04 #@! TO.P,RV1,1*
G04 #@! TO.N,/R3_RV1*
X216445000Y-82295000D03*
G04 #@! TD*
D18*
G04 #@! TO.P,A1,16*
G04 #@! TO.N,/E6(D13)*
X107860000Y-48005000D03*
G04 #@! TO.P,A1,15*
G04 #@! TO.N,/E5(D12)*
X123100000Y-48005000D03*
G04 #@! TO.P,A1,30*
G04 #@! TO.N,N/C*
X107860000Y-83565000D03*
G04 #@! TO.P,A1,14*
G04 #@! TO.N,/E4(D11)*
X123100000Y-50545000D03*
G04 #@! TO.P,A1,29*
G04 #@! TO.N,GND*
X107860000Y-81025000D03*
G04 #@! TO.P,A1,13*
G04 #@! TO.N,/E3(D10)*
X123100000Y-53085000D03*
G04 #@! TO.P,A1,28*
G04 #@! TO.N,/RESET*
X107860000Y-78485000D03*
G04 #@! TO.P,A1,12*
G04 #@! TO.N,/E2(D9)*
X123100000Y-55625000D03*
G04 #@! TO.P,A1,27*
G04 #@! TO.N,+5V*
X107860000Y-75945000D03*
G04 #@! TO.P,A1,11*
G04 #@! TO.N,/E1(D8)*
X123100000Y-58165000D03*
G04 #@! TO.P,A1,26*
G04 #@! TO.N,/Rot.Speed*
X107860000Y-73405000D03*
G04 #@! TO.P,A1,10*
G04 #@! TO.N,/E8(D7)*
X123100000Y-60705000D03*
G04 #@! TO.P,A1,25*
G04 #@! TO.N,/Feedrate*
X107860000Y-70865000D03*
G04 #@! TO.P,A1,9*
G04 #@! TO.N,/E7(D6)*
X123100000Y-63245000D03*
G04 #@! TO.P,A1,24*
G04 #@! TO.N,/Z_STEP*
X107860000Y-68325000D03*
G04 #@! TO.P,A1,8*
G04 #@! TO.N,/Spindle_PWM(D5)*
X123100000Y-65785000D03*
G04 #@! TO.P,A1,23*
G04 #@! TO.N,/Y_STEP*
X107860000Y-65785000D03*
G04 #@! TO.P,A1,7*
G04 #@! TO.N,/Spindle_ON_OFF(D4)*
X123100000Y-68325000D03*
G04 #@! TO.P,A1,22*
G04 #@! TO.N,/X_STEP*
X107860000Y-63245000D03*
G04 #@! TO.P,A1,6*
G04 #@! TO.N,/A1(D3)*
X123100000Y-70865000D03*
G04 #@! TO.P,A1,21*
G04 #@! TO.N,/Z_DIR*
X107860000Y-60705000D03*
G04 #@! TO.P,A1,5*
G04 #@! TO.N,/A2(D2)*
X123100000Y-73405000D03*
G04 #@! TO.P,A1,20*
G04 #@! TO.N,/Y_DIR*
X107860000Y-58165000D03*
G04 #@! TO.P,A1,4*
G04 #@! TO.N,GND*
X123100000Y-75945000D03*
G04 #@! TO.P,A1,19*
G04 #@! TO.N,/X_DIR*
X107860000Y-55625000D03*
G04 #@! TO.P,A1,3*
G04 #@! TO.N,N/C*
X123100000Y-78485000D03*
G04 #@! TO.P,A1,18*
X107860000Y-53085000D03*
G04 #@! TO.P,A1,2*
G04 #@! TO.N,/RX*
X123100000Y-81025000D03*
G04 #@! TO.P,A1,17*
G04 #@! TO.N,+3V3*
X107860000Y-50545000D03*
D15*
G04 #@! TO.P,A1,1*
G04 #@! TO.N,/TX*
X123100000Y-83565000D03*
G04 #@! TD*
D18*
G04 #@! TO.P,A4,16*
G04 #@! TO.N,/Z_DIR*
X98335000Y-119760000D03*
G04 #@! TO.P,A4,8*
G04 #@! TO.N,VMot*
X80555000Y-107060000D03*
G04 #@! TO.P,A4,15*
G04 #@! TO.N,/Z_STEP*
X95795000Y-119760000D03*
G04 #@! TO.P,A4,7*
G04 #@! TO.N,GND*
X83095000Y-107060000D03*
G04 #@! TO.P,A4,14*
G04 #@! TO.N,+5V*
X93255000Y-119760000D03*
G04 #@! TO.P,A4,6*
G04 #@! TO.N,/B2Z*
X85635000Y-107060000D03*
G04 #@! TO.P,A4,13*
G04 #@! TO.N,+5V*
X90715000Y-119760000D03*
G04 #@! TO.P,A4,5*
G04 #@! TO.N,/B1Z*
X88175000Y-107060000D03*
G04 #@! TO.P,A4,12*
G04 #@! TO.N,/M2Z*
X88175000Y-119760000D03*
G04 #@! TO.P,A4,4*
G04 #@! TO.N,/A1Z*
X90715000Y-107060000D03*
G04 #@! TO.P,A4,11*
G04 #@! TO.N,/M1Z*
X85635000Y-119760000D03*
G04 #@! TO.P,A4,3*
G04 #@! TO.N,/A2Z*
X93255000Y-107060000D03*
G04 #@! TO.P,A4,10*
G04 #@! TO.N,/M0Z*
X83095000Y-119760000D03*
G04 #@! TO.P,A4,2*
G04 #@! TO.N,/FLT_Z*
X95795000Y-107060000D03*
G04 #@! TO.P,A4,9*
G04 #@! TO.N,GND*
X80555000Y-119760000D03*
D15*
G04 #@! TO.P,A4,1*
X98335000Y-107060000D03*
G04 #@! TD*
D18*
G04 #@! TO.P,A3,16*
G04 #@! TO.N,/Y_DIR*
X98335000Y-96900000D03*
G04 #@! TO.P,A3,8*
G04 #@! TO.N,VMot*
X80555000Y-84200000D03*
G04 #@! TO.P,A3,15*
G04 #@! TO.N,/Y_STEP*
X95795000Y-96900000D03*
G04 #@! TO.P,A3,7*
G04 #@! TO.N,GND*
X83095000Y-84200000D03*
G04 #@! TO.P,A3,14*
G04 #@! TO.N,+5V*
X93255000Y-96900000D03*
G04 #@! TO.P,A3,6*
G04 #@! TO.N,/B2Y2*
X85635000Y-84200000D03*
G04 #@! TO.P,A3,13*
G04 #@! TO.N,+5V*
X90715000Y-96900000D03*
G04 #@! TO.P,A3,5*
G04 #@! TO.N,/B1Y1*
X88175000Y-84200000D03*
G04 #@! TO.P,A3,12*
G04 #@! TO.N,/M2Y*
X88175000Y-96900000D03*
G04 #@! TO.P,A3,4*
G04 #@! TO.N,/A1Y2*
X90715000Y-84200000D03*
G04 #@! TO.P,A3,11*
G04 #@! TO.N,/M1Y*
X85635000Y-96900000D03*
G04 #@! TO.P,A3,3*
G04 #@! TO.N,/A2Y1*
X93255000Y-84200000D03*
G04 #@! TO.P,A3,10*
G04 #@! TO.N,/M0Y*
X83095000Y-96900000D03*
G04 #@! TO.P,A3,2*
G04 #@! TO.N,/FLT_Y*
X95795000Y-84200000D03*
G04 #@! TO.P,A3,9*
G04 #@! TO.N,GND*
X80555000Y-96900000D03*
D15*
G04 #@! TO.P,A3,1*
X98335000Y-84200000D03*
G04 #@! TD*
D18*
G04 #@! TO.P,A2,16*
G04 #@! TO.N,/X_DIR*
X98335000Y-70865000D03*
G04 #@! TO.P,A2,8*
G04 #@! TO.N,VMot*
X80555000Y-58165000D03*
G04 #@! TO.P,A2,15*
G04 #@! TO.N,/X_STEP*
X95795000Y-70865000D03*
G04 #@! TO.P,A2,7*
G04 #@! TO.N,GND*
X83095000Y-58165000D03*
G04 #@! TO.P,A2,14*
G04 #@! TO.N,+5V*
X93255000Y-70865000D03*
G04 #@! TO.P,A2,6*
G04 #@! TO.N,/B2X2*
X85635000Y-58165000D03*
G04 #@! TO.P,A2,13*
G04 #@! TO.N,+5V*
X90715000Y-70865000D03*
G04 #@! TO.P,A2,5*
G04 #@! TO.N,/B1X1*
X88175000Y-58165000D03*
G04 #@! TO.P,A2,12*
G04 #@! TO.N,/M2X*
X88175000Y-70865000D03*
G04 #@! TO.P,A2,4*
G04 #@! TO.N,/A1X2*
X90715000Y-58165000D03*
G04 #@! TO.P,A2,11*
G04 #@! TO.N,/M1X*
X85635000Y-70865000D03*
G04 #@! TO.P,A2,3*
G04 #@! TO.N,/A2X1*
X93255000Y-58165000D03*
G04 #@! TO.P,A2,10*
G04 #@! TO.N,/M0X*
X83095000Y-70865000D03*
G04 #@! TO.P,A2,2*
G04 #@! TO.N,/FLT_X*
X95795000Y-58165000D03*
G04 #@! TO.P,A2,9*
G04 #@! TO.N,GND*
X80555000Y-70865000D03*
D15*
G04 #@! TO.P,A2,1*
X98335000Y-58165000D03*
G04 #@! TD*
D22*
G04 #@! TO.P,J27,1*
G04 #@! TO.N,GND*
X88175000Y-130555000D03*
D23*
G04 #@! TO.P,J27,2*
G04 #@! TO.N,/Rot.Speed*
X93175000Y-130555000D03*
G04 #@! TO.P,J27,3*
G04 #@! TO.N,+5V*
X98175000Y-130555000D03*
G04 #@! TD*
G04 #@! TO.P,HS1,1*
G04 #@! TO.N,N/C*
X173265000Y-93775000D03*
G04 #@! TD*
G04 #@! TO.P,J17,2*
G04 #@! TO.N,/DCM*
X211365000Y-58245000D03*
D22*
G04 #@! TO.P,J17,1*
G04 #@! TO.N,/FOR*
X211365000Y-63245000D03*
G04 #@! TD*
D23*
G04 #@! TO.P,J16,2*
G04 #@! TO.N,GND*
X211365000Y-69675000D03*
D22*
G04 #@! TO.P,J16,1*
G04 #@! TO.N,/VI*
X211365000Y-74675000D03*
G04 #@! TD*
D23*
G04 #@! TO.P,J1,2*
G04 #@! TO.N,GND*
X114765000Y-130555000D03*
D22*
G04 #@! TO.P,J1,1*
G04 #@! TO.N,VDC*
X109765000Y-130555000D03*
G04 #@! TD*
G04 #@! TO.P,J22,1*
G04 #@! TO.N,+5V*
X121195000Y-130555000D03*
D23*
G04 #@! TO.P,J22,2*
G04 #@! TO.N,/IN5*
X126195000Y-130555000D03*
G04 #@! TO.P,J22,3*
G04 #@! TO.N,GND*
X131195000Y-130555000D03*
G04 #@! TD*
D22*
G04 #@! TO.P,J13,1*
G04 #@! TO.N,/COM*
X211365000Y-124840000D03*
D23*
G04 #@! TO.P,J13,2*
G04 #@! TO.N,/OUT2*
X211365000Y-119840000D03*
G04 #@! TO.P,J13,3*
G04 #@! TO.N,GND*
X211365000Y-114840000D03*
G04 #@! TD*
D22*
G04 #@! TO.P,J14,1*
G04 #@! TO.N,/COM*
X191680000Y-130555000D03*
D23*
G04 #@! TO.P,J14,2*
G04 #@! TO.N,/OUT3*
X196680000Y-130555000D03*
G04 #@! TO.P,J14,3*
G04 #@! TO.N,GND*
X201680000Y-130555000D03*
G04 #@! TD*
D22*
G04 #@! TO.P,J12,1*
G04 #@! TO.N,/COM*
X211365000Y-108330000D03*
D23*
G04 #@! TO.P,J12,2*
G04 #@! TO.N,/OUT1*
X211365000Y-103330000D03*
G04 #@! TO.P,J12,3*
G04 #@! TO.N,GND*
X211365000Y-98330000D03*
G04 #@! TD*
D22*
G04 #@! TO.P,J21,1*
G04 #@! TO.N,+5V*
X138975000Y-51815000D03*
D23*
G04 #@! TO.P,J21,2*
G04 #@! TO.N,/IN4*
X133975000Y-51815000D03*
G04 #@! TO.P,J21,3*
G04 #@! TO.N,GND*
X128975000Y-51815000D03*
G04 #@! TD*
D22*
G04 #@! TO.P,J18,1*
G04 #@! TO.N,+5V*
X188505000Y-51815000D03*
D23*
G04 #@! TO.P,J18,2*
G04 #@! TO.N,/IN1*
X183505000Y-51815000D03*
G04 #@! TO.P,J18,3*
G04 #@! TO.N,GND*
X178505000Y-51815000D03*
G04 #@! TD*
D22*
G04 #@! TO.P,J19,1*
G04 #@! TO.N,+5V*
X171995000Y-51815000D03*
D23*
G04 #@! TO.P,J19,2*
G04 #@! TO.N,/IN2*
X166995000Y-51815000D03*
G04 #@! TO.P,J19,3*
G04 #@! TO.N,GND*
X161995000Y-51815000D03*
G04 #@! TD*
D22*
G04 #@! TO.P,J20,1*
G04 #@! TO.N,+5V*
X155485000Y-51815000D03*
D23*
G04 #@! TO.P,J20,2*
G04 #@! TO.N,/IN3*
X150485000Y-51815000D03*
G04 #@! TO.P,J20,3*
G04 #@! TO.N,GND*
X145485000Y-51815000D03*
G04 #@! TD*
D22*
G04 #@! TO.P,J24,1*
G04 #@! TO.N,+5V*
X154215000Y-130555000D03*
D23*
G04 #@! TO.P,J24,2*
G04 #@! TO.N,/IN7*
X159215000Y-130555000D03*
G04 #@! TO.P,J24,3*
G04 #@! TO.N,GND*
X164215000Y-130555000D03*
G04 #@! TD*
D22*
G04 #@! TO.P,J25,1*
G04 #@! TO.N,+5V*
X170725000Y-130555000D03*
D23*
G04 #@! TO.P,J25,2*
G04 #@! TO.N,/IN8*
X175725000Y-130555000D03*
G04 #@! TO.P,J25,3*
G04 #@! TO.N,GND*
X180725000Y-130555000D03*
G04 #@! TD*
D22*
G04 #@! TO.P,J4,1*
G04 #@! TO.N,GND*
X72300000Y-59435000D03*
D23*
G04 #@! TO.P,J4,2*
G04 #@! TO.N,/X_STEP*
X72300000Y-64435000D03*
G04 #@! TO.P,J4,3*
G04 #@! TO.N,/X_DIR*
X72300000Y-69435000D03*
G04 #@! TD*
D22*
G04 #@! TO.P,J5,1*
G04 #@! TO.N,GND*
X72300000Y-85470000D03*
D23*
G04 #@! TO.P,J5,2*
G04 #@! TO.N,/Y_STEP*
X72300000Y-90470000D03*
G04 #@! TO.P,J5,3*
G04 #@! TO.N,/Y_DIR*
X72300000Y-95470000D03*
G04 #@! TD*
D22*
G04 #@! TO.P,J6,1*
G04 #@! TO.N,GND*
X72300000Y-111505000D03*
D23*
G04 #@! TO.P,J6,2*
G04 #@! TO.N,/Z_STEP*
X72300000Y-116505000D03*
G04 #@! TO.P,J6,3*
G04 #@! TO.N,/Z_DIR*
X72300000Y-121505000D03*
G04 #@! TD*
D22*
G04 #@! TO.P,J23,1*
G04 #@! TO.N,+5V*
X137705000Y-130555000D03*
D23*
G04 #@! TO.P,J23,2*
G04 #@! TO.N,/IN6*
X142705000Y-130555000D03*
G04 #@! TO.P,J23,3*
G04 #@! TO.N,GND*
X147705000Y-130555000D03*
G04 #@! TD*
D22*
G04 #@! TO.P,J26,1*
G04 #@! TO.N,GND*
X71665000Y-130555000D03*
D23*
G04 #@! TO.P,J26,2*
G04 #@! TO.N,/Feedrate*
X76665000Y-130555000D03*
G04 #@! TO.P,J26,3*
G04 #@! TO.N,+5V*
X81665000Y-130555000D03*
G04 #@! TD*
D24*
G04 #@! TO.P,J29,2*
G04 #@! TO.N,GND*
X103669000Y-52450000D03*
D25*
G04 #@! TO.P,J29,1*
G04 #@! TO.N,+3V3*
X103669000Y-49910000D03*
G04 #@! TD*
D24*
G04 #@! TO.P,J28,3*
G04 #@! TO.N,GND*
X190410000Y-75310000D03*
G04 #@! TO.P,J28,2*
G04 #@! TO.N,+5V*
X187870000Y-75310000D03*
D25*
G04 #@! TO.P,J28,1*
G04 #@! TO.N,/SERVO_PPM*
X185330000Y-75310000D03*
G04 #@! TD*
D24*
G04 #@! TO.P,J15,6*
G04 #@! TO.N,GND*
X178980000Y-62610000D03*
G04 #@! TO.P,J15,5*
G04 #@! TO.N,/RESET_ATtiny*
X178980000Y-65150000D03*
G04 #@! TO.P,J15,4*
G04 #@! TO.N,/MOSI*
X176440000Y-62610000D03*
G04 #@! TO.P,J15,3*
G04 #@! TO.N,/SCK*
X176440000Y-65150000D03*
G04 #@! TO.P,J15,2*
G04 #@! TO.N,+5V*
X173900000Y-62610000D03*
D25*
G04 #@! TO.P,J15,1*
G04 #@! TO.N,/MISO*
X173900000Y-65150000D03*
G04 #@! TD*
D24*
G04 #@! TO.P,J3,6*
G04 #@! TO.N,GND*
X109130000Y-91185000D03*
G04 #@! TO.P,J3,5*
G04 #@! TO.N,/RESET*
X111670000Y-91185000D03*
G04 #@! TO.P,J3,4*
G04 #@! TO.N,+5V*
X114210000Y-91185000D03*
G04 #@! TO.P,J3,3*
G04 #@! TO.N,GND*
X116750000Y-91185000D03*
G04 #@! TO.P,J3,2*
G04 #@! TO.N,/RX*
X119290000Y-91185000D03*
D25*
G04 #@! TO.P,J3,1*
G04 #@! TO.N,/TX*
X121830000Y-91185000D03*
G04 #@! TD*
D24*
G04 #@! TO.P,JP2,2*
G04 #@! TO.N,/M1X*
X85000000Y-65785000D03*
D25*
G04 #@! TO.P,JP2,1*
G04 #@! TO.N,+5V*
X85000000Y-63245000D03*
G04 #@! TD*
D24*
G04 #@! TO.P,JP16,2*
G04 #@! TO.N,GND*
X209460000Y-91820000D03*
D25*
G04 #@! TO.P,JP16,1*
G04 #@! TO.N,/C1_to_JP16*
X206920000Y-91820000D03*
G04 #@! TD*
D24*
G04 #@! TO.P,JP17,2*
G04 #@! TO.N,Spindle_Speed_Analog_0-5V*
X187489000Y-84454000D03*
D25*
G04 #@! TO.P,JP17,1*
G04 #@! TO.N,/Spindle_PWM(D5)*
X187489000Y-81914000D03*
G04 #@! TD*
D24*
G04 #@! TO.P,JP3,2*
G04 #@! TO.N,/M2X*
X88810000Y-65785000D03*
D25*
G04 #@! TO.P,JP3,1*
G04 #@! TO.N,+5V*
X88810000Y-63245000D03*
G04 #@! TD*
D24*
G04 #@! TO.P,JP14,3*
G04 #@! TO.N,/A3(D4)*
X152310000Y-91185000D03*
G04 #@! TO.P,JP14,2*
G04 #@! TO.N,/Spindle_ON_OFF(D4)*
X152310000Y-88645000D03*
D25*
G04 #@! TO.P,JP14,1*
G04 #@! TO.N,/Spindle_ON_OFF*
X152310000Y-86105000D03*
G04 #@! TD*
D24*
G04 #@! TO.P,JP13,3*
G04 #@! TO.N,+5V*
X212635000Y-129920000D03*
G04 #@! TO.P,JP13,2*
G04 #@! TO.N,/COM*
X210095000Y-129920000D03*
D25*
G04 #@! TO.P,JP13,1*
G04 #@! TO.N,+12V*
X207555000Y-129920000D03*
G04 #@! TD*
D24*
G04 #@! TO.P,JP8,2*
G04 #@! TO.N,/FLT_Y*
X98335000Y-79755000D03*
D25*
G04 #@! TO.P,JP8,1*
G04 #@! TO.N,+5V*
X98335000Y-77215000D03*
G04 #@! TD*
D26*
G04 #@! TO.P,J2,3*
G04 #@! TO.N,N/C*
X173900000Y-120395000D03*
G04 #@! TO.P,J2,2*
G04 #@! TO.N,+12V*
X173900000Y-117855000D03*
D27*
G04 #@! TD*
G04 #@! TO.N,GND*
G04 #@! TO.C,J2*
G36*
X174774505Y-114446204D02*
X174798773Y-114449804D01*
X174822572Y-114455765D01*
X174845671Y-114464030D01*
X174867850Y-114474520D01*
X174888893Y-114487132D01*
X174908599Y-114501747D01*
X174926777Y-114518223D01*
X174943253Y-114536401D01*
X174957868Y-114556107D01*
X174970480Y-114577150D01*
X174980970Y-114599329D01*
X174989235Y-114622428D01*
X174995196Y-114646227D01*
X174998796Y-114670495D01*
X175000000Y-114694999D01*
X175000000Y-115935001D01*
X174998796Y-115959505D01*
X174995196Y-115983773D01*
X174989235Y-116007572D01*
X174980970Y-116030671D01*
X174970480Y-116052850D01*
X174957868Y-116073893D01*
X174943253Y-116093599D01*
X174926777Y-116111777D01*
X174908599Y-116128253D01*
X174888893Y-116142868D01*
X174867850Y-116155480D01*
X174845671Y-116165970D01*
X174822572Y-116174235D01*
X174798773Y-116180196D01*
X174774505Y-116183796D01*
X174750001Y-116185000D01*
X173049999Y-116185000D01*
X173025495Y-116183796D01*
X173001227Y-116180196D01*
X172977428Y-116174235D01*
X172954329Y-116165970D01*
X172932150Y-116155480D01*
X172911107Y-116142868D01*
X172891401Y-116128253D01*
X172873223Y-116111777D01*
X172856747Y-116093599D01*
X172842132Y-116073893D01*
X172829520Y-116052850D01*
X172819030Y-116030671D01*
X172810765Y-116007572D01*
X172804804Y-115983773D01*
X172801204Y-115959505D01*
X172800000Y-115935001D01*
X172800000Y-114694999D01*
X172801204Y-114670495D01*
X172804804Y-114646227D01*
X172810765Y-114622428D01*
X172819030Y-114599329D01*
X172829520Y-114577150D01*
X172842132Y-114556107D01*
X172856747Y-114536401D01*
X172873223Y-114518223D01*
X172891401Y-114501747D01*
X172911107Y-114487132D01*
X172932150Y-114474520D01*
X172954329Y-114464030D01*
X172977428Y-114455765D01*
X173001227Y-114449804D01*
X173025495Y-114446204D01*
X173049999Y-114445000D01*
X174750001Y-114445000D01*
X174774505Y-114446204D01*
X174774505Y-114446204D01*
G37*
D28*
G04 #@! TO.P,J2,1*
G04 #@! TO.N,GND*
X173900000Y-115315000D03*
G04 #@! TD*
D24*
G04 #@! TO.P,J8,4*
G04 #@! TO.N,/A1X1*
X93255000Y-48640000D03*
G04 #@! TO.P,J8,3*
G04 #@! TO.N,/A1X2*
X90715000Y-48640000D03*
G04 #@! TO.P,J8,2*
G04 #@! TO.N,/B2X1*
X88175000Y-48640000D03*
D25*
G04 #@! TO.P,J8,1*
G04 #@! TO.N,/B2X2*
X85635000Y-48640000D03*
G04 #@! TD*
D24*
G04 #@! TO.P,J7,4*
G04 #@! TO.N,/B2X1*
X85635000Y-52450000D03*
G04 #@! TO.P,J7,3*
G04 #@! TO.N,/B1X1*
X88175000Y-52450000D03*
G04 #@! TO.P,J7,2*
G04 #@! TO.N,/A1X1*
X90715000Y-52450000D03*
D25*
G04 #@! TO.P,J7,1*
G04 #@! TO.N,/A2X1*
X93255000Y-52450000D03*
G04 #@! TD*
D24*
G04 #@! TO.P,J11,4*
G04 #@! TO.N,/B2Z*
X85635000Y-102615000D03*
G04 #@! TO.P,J11,3*
G04 #@! TO.N,/B1Z*
X88175000Y-102615000D03*
G04 #@! TO.P,J11,2*
G04 #@! TO.N,/A1Z*
X90715000Y-102615000D03*
D25*
G04 #@! TO.P,J11,1*
G04 #@! TO.N,/A2Z*
X93255000Y-102615000D03*
G04 #@! TD*
D24*
G04 #@! TO.P,J10,4*
G04 #@! TO.N,/A1Y1*
X93255000Y-75945000D03*
G04 #@! TO.P,J10,3*
G04 #@! TO.N,/A1Y2*
X90715000Y-75945000D03*
G04 #@! TO.P,J10,2*
G04 #@! TO.N,/B2Y1*
X88175000Y-75945000D03*
D25*
G04 #@! TO.P,J10,1*
G04 #@! TO.N,/B2Y2*
X85635000Y-75945000D03*
G04 #@! TD*
D24*
G04 #@! TO.P,J9,4*
G04 #@! TO.N,/B2Y1*
X85635000Y-79755000D03*
G04 #@! TO.P,J9,3*
G04 #@! TO.N,/B1Y1*
X88175000Y-79755000D03*
G04 #@! TO.P,J9,2*
G04 #@! TO.N,/A1Y1*
X90715000Y-79755000D03*
D25*
G04 #@! TO.P,J9,1*
G04 #@! TO.N,/A2Y1*
X93255000Y-79755000D03*
G04 #@! TD*
D24*
G04 #@! TO.P,JP10,2*
G04 #@! TO.N,/M1Z*
X85000000Y-114680000D03*
D25*
G04 #@! TO.P,JP10,1*
G04 #@! TO.N,+5V*
X85000000Y-112140000D03*
G04 #@! TD*
D24*
G04 #@! TO.P,JP5,2*
G04 #@! TO.N,/M0Y*
X81190000Y-91820000D03*
D25*
G04 #@! TO.P,JP5,1*
G04 #@! TO.N,+5V*
X81190000Y-89280000D03*
G04 #@! TD*
D24*
G04 #@! TO.P,JP15,2*
G04 #@! TO.N,/5V_10V*
X200570000Y-75310000D03*
D25*
G04 #@! TO.P,JP15,1*
G04 #@! TO.N,/VI*
X203110000Y-75310000D03*
G04 #@! TD*
D24*
G04 #@! TO.P,JP11,2*
G04 #@! TO.N,/M2Z*
X88810000Y-114680000D03*
D25*
G04 #@! TO.P,JP11,1*
G04 #@! TO.N,+5V*
X88810000Y-112140000D03*
G04 #@! TD*
D24*
G04 #@! TO.P,JP7,2*
G04 #@! TO.N,/M2Y*
X88810000Y-91820000D03*
D25*
G04 #@! TO.P,JP7,1*
G04 #@! TO.N,+5V*
X88810000Y-89280000D03*
G04 #@! TD*
D24*
G04 #@! TO.P,JP6,2*
G04 #@! TO.N,/M1Y*
X85000000Y-91820000D03*
D25*
G04 #@! TO.P,JP6,1*
G04 #@! TO.N,+5V*
X85000000Y-89280000D03*
G04 #@! TD*
D24*
G04 #@! TO.P,JP9,2*
G04 #@! TO.N,/M0Z*
X81190000Y-114680000D03*
D25*
G04 #@! TO.P,JP9,1*
G04 #@! TO.N,+5V*
X81190000Y-112140000D03*
G04 #@! TD*
D24*
G04 #@! TO.P,JP12,2*
G04 #@! TO.N,/FLT_Z*
X98335000Y-103250000D03*
D25*
G04 #@! TO.P,JP12,1*
G04 #@! TO.N,+5V*
X98335000Y-100710000D03*
G04 #@! TD*
D24*
G04 #@! TO.P,JP4,2*
G04 #@! TO.N,/FLT_X*
X98335000Y-52450000D03*
D25*
G04 #@! TO.P,JP4,1*
G04 #@! TO.N,+5V*
X98335000Y-49910000D03*
G04 #@! TD*
D24*
G04 #@! TO.P,JP1,2*
G04 #@! TO.N,/M0X*
X81190000Y-65785000D03*
D25*
G04 #@! TO.P,JP1,1*
G04 #@! TO.N,+5V*
X81190000Y-63245000D03*
G04 #@! TD*
D29*
G04 #@! TO.N,/Z_STEP*
X95795000Y-116019305D03*
G04 #@! TO.N,/Y_STEP*
X95795000Y-93090000D03*
G04 #@! TO.N,/X_STEP*
X95795000Y-67055000D03*
G04 #@! TO.N,/A1(D3)*
X172630000Y-108330000D03*
G04 #@! TO.N,/A2(D2)*
X173830741Y-109600000D03*
G04 #@! TO.N,/A3(D4)*
X171360000Y-107060000D03*
G04 #@! TO.N,/IN8*
X169455000Y-115315000D03*
G04 #@! TO.N,/IN7_R_LED*
X150405000Y-121030000D03*
G04 #@! TD*
D30*
G04 #@! TO.N,+5V*
X171360000Y-63947919D02*
X171360000Y-70230000D01*
X164305000Y-74040000D02*
X168890000Y-78625000D01*
X163105000Y-74040000D02*
X164305000Y-74040000D01*
X154215000Y-122935000D02*
X154215000Y-130555000D01*
X137705000Y-122935000D02*
X137705000Y-130555000D01*
X171360000Y-70630000D02*
X171360000Y-70230000D01*
X167950000Y-74040000D02*
X171360000Y-70630000D01*
X163105000Y-74040000D02*
X167950000Y-74040000D01*
X171360000Y-70230000D02*
X168185000Y-70230000D01*
X164305001Y-74040001D02*
X168890000Y-78625000D01*
X163105000Y-74040000D02*
X164305001Y-74040001D01*
X168890000Y-78625000D02*
X168890000Y-83047500D01*
X172697919Y-62610000D02*
X173900000Y-62610000D01*
X171360000Y-63947919D02*
X172697919Y-62610000D01*
X187870000Y-74107919D02*
X187870000Y-75310000D01*
X187040081Y-73278000D02*
X187870000Y-74107919D01*
X176313000Y-73278000D02*
X187040081Y-73278000D01*
X175551000Y-74040000D02*
X176313000Y-73278000D01*
X164305000Y-74040000D02*
X175551000Y-74040000D01*
X188653082Y-71664999D02*
X187040081Y-73278000D01*
X191515001Y-71664999D02*
X188653082Y-71664999D01*
X192315000Y-70865000D02*
X191515001Y-71664999D01*
X168890000Y-83047500D02*
X177710000Y-91185000D01*
X177710000Y-91185000D02*
X178980000Y-91185000D01*
X170725000Y-126745000D02*
X166915000Y-122935000D01*
X170725000Y-130555000D02*
X170725000Y-126745000D01*
X121195000Y-122935000D02*
X121195000Y-130555000D01*
D31*
G04 #@! TO.N,/Z_STEP*
X95795000Y-119760000D02*
X95795000Y-116019305D01*
X79205000Y-109600000D02*
X72300000Y-116505000D01*
X89378128Y-109600000D02*
X79205000Y-109600000D01*
X95395001Y-115616873D02*
X89378128Y-109600000D01*
X95795000Y-116019305D02*
X95395001Y-115619306D01*
X95395001Y-115619306D02*
X95395001Y-115616873D01*
G04 #@! TO.N,/Z_DIR*
X98335000Y-119760000D02*
X96430000Y-121665000D01*
X102780000Y-115315000D02*
X98335000Y-119760000D01*
X107860000Y-60705000D02*
X102780000Y-65785000D01*
X102780000Y-65785000D02*
X102780000Y-115315000D01*
X96270000Y-121505000D02*
X72300000Y-121505000D01*
X96430000Y-121665000D02*
X96270000Y-121505000D01*
G04 #@! TO.N,/Y_STEP*
X95795000Y-96900000D02*
X95795000Y-93090000D01*
X76030000Y-86740000D02*
X72300000Y-90470000D01*
X95795000Y-93090000D02*
X89445000Y-86740000D01*
X89445000Y-86740000D02*
X76030000Y-86740000D01*
G04 #@! TO.N,/Y_DIR*
X99134999Y-96100001D02*
X98335000Y-96900000D01*
X101510000Y-93725000D02*
X99134999Y-96100001D01*
X107860000Y-58165000D02*
X101510000Y-64515000D01*
X101510000Y-64515000D02*
X101510000Y-93725000D01*
X75635000Y-98805000D02*
X72300000Y-95470000D01*
X97065000Y-98805000D02*
X75635000Y-98805000D01*
X98335000Y-96900000D02*
X98335000Y-97535000D01*
X98335000Y-97535000D02*
X97065000Y-98805000D01*
G04 #@! TO.N,/X_DIR*
X98335000Y-65150000D02*
X98335000Y-70865000D01*
X107860000Y-55625000D02*
X98335000Y-65150000D01*
X75635000Y-72770000D02*
X72300000Y-69435000D01*
X97700000Y-72770000D02*
X75635000Y-72770000D01*
X98335000Y-70865000D02*
X98335000Y-72135000D01*
X98335000Y-72135000D02*
X97700000Y-72770000D01*
G04 #@! TO.N,/X_STEP*
X95795000Y-70865000D02*
X95795000Y-67055000D01*
X76030000Y-60705000D02*
X72300000Y-64435000D01*
X90715000Y-60705000D02*
X76030000Y-60705000D01*
X95795000Y-67055000D02*
X95795000Y-65785000D01*
X95795000Y-65785000D02*
X90715000Y-60705000D01*
G04 #@! TO.N,/TX*
X121830000Y-86035000D02*
X121830000Y-91185000D01*
X123100000Y-83565000D02*
X123100000Y-84765000D01*
X123100000Y-84765000D02*
X121830000Y-86035000D01*
G04 #@! TO.N,/RX*
X119290000Y-83703630D02*
X119290000Y-91185000D01*
X123100000Y-81025000D02*
X121968630Y-81025000D01*
X121968630Y-81025000D02*
X119290000Y-83703630D01*
G04 #@! TO.N,/Feedrate*
X83015000Y-124205000D02*
X76665000Y-130555000D01*
X96938000Y-124205000D02*
X83015000Y-124205000D01*
X104685000Y-116458000D02*
X96938000Y-124205000D01*
X107860000Y-70865000D02*
X104685000Y-74040000D01*
X104685000Y-74040000D02*
X104685000Y-116458000D01*
G04 #@! TO.N,/Rot.Speed*
X93175000Y-129365000D02*
X93175000Y-130555000D01*
X105950681Y-116589319D02*
X93175000Y-129365000D01*
X107860000Y-73405000D02*
X105950681Y-75314319D01*
X105950681Y-75314319D02*
X105950681Y-116589319D01*
G04 #@! TO.N,/Spindle_ON_OFF*
X203109999Y-60635001D02*
X202405000Y-61340000D01*
X203110000Y-59435000D02*
X203109999Y-60635001D01*
X202405000Y-61340000D02*
X183425000Y-61340000D01*
X183425000Y-61340000D02*
X181520000Y-59435000D01*
X155485000Y-72135000D02*
X155485000Y-82930000D01*
X181520000Y-59435000D02*
X168185000Y-59435000D01*
X168185000Y-59435000D02*
X155485000Y-72135000D01*
X155485000Y-82930000D02*
X152310000Y-86105000D01*
D32*
G04 #@! TO.N,/A2Z*
X93255000Y-102615000D02*
X93255000Y-107060000D01*
G04 #@! TO.N,/A1Z*
X90715000Y-102615000D02*
X90715000Y-107060000D01*
G04 #@! TO.N,/B1Z*
X88175000Y-102615000D02*
X88175000Y-107060000D01*
G04 #@! TO.N,/B2Z*
X85635000Y-102615000D02*
X85635000Y-107060000D01*
D31*
G04 #@! TO.N,/FOR*
X206920000Y-63245000D02*
X203110000Y-67055000D01*
X211365000Y-63245000D02*
X206920000Y-63245000D01*
G04 #@! TO.N,/DCM*
X209380000Y-58245000D02*
X200570000Y-67055000D01*
X211365000Y-58245000D02*
X209380000Y-58245000D01*
G04 #@! TO.N,/VI*
X198665000Y-82295000D02*
X201840000Y-82295000D01*
X203110000Y-81025000D02*
X201840000Y-82295000D01*
X203110000Y-75310000D02*
X203110000Y-81025000D01*
X203745000Y-74675000D02*
X203110000Y-75310000D01*
X211365000Y-74675000D02*
X203745000Y-74675000D01*
G04 #@! TO.N,/A1(D3)*
X190410000Y-108330000D02*
X172630000Y-108330000D01*
X196125000Y-104520000D02*
X194220000Y-104520000D01*
X194220000Y-104520000D02*
X190410000Y-108330000D01*
G04 #@! TO.N,/A2(D2)*
X193585000Y-109600000D02*
X173830741Y-109600000D01*
X196125000Y-107060000D02*
X193585000Y-109600000D01*
G04 #@! TO.N,/E5(D12)*
X127545000Y-73405000D02*
X127545000Y-87375000D01*
X126275000Y-72135000D02*
X127545000Y-73405000D01*
X121195000Y-49910000D02*
X121195000Y-66420000D01*
X121195000Y-66420000D02*
X121830000Y-67055000D01*
X123100000Y-48005000D02*
X121195000Y-49910000D01*
X121830000Y-67055000D02*
X125005000Y-67055000D01*
X125005000Y-67055000D02*
X126275000Y-68325000D01*
X126275000Y-68325000D02*
X126275000Y-72135000D01*
G04 #@! TO.N,/E6(D13)*
X111670000Y-51815000D02*
X107860000Y-48005000D01*
X111670000Y-59435000D02*
X111670000Y-51815000D01*
X121830000Y-69595000D02*
X111670000Y-59435000D01*
X130720000Y-89280000D02*
X126275000Y-89280000D01*
X132625000Y-87375000D02*
X130720000Y-89280000D01*
X126275000Y-89280000D02*
X125005000Y-88010000D01*
X125005000Y-88010000D02*
X125005000Y-70230000D01*
X125005000Y-70230000D02*
X124370000Y-69595000D01*
X124370000Y-69595000D02*
X121830000Y-69595000D01*
G04 #@! TO.N,/E7(D6)*
X137705000Y-86105000D02*
X137705000Y-87375000D01*
X129450000Y-77850000D02*
X137705000Y-86105000D01*
X129450000Y-73405000D02*
X129450000Y-77850000D01*
X127545000Y-71500000D02*
X129450000Y-73405000D01*
X123100000Y-63245000D02*
X127545000Y-67690000D01*
X127545000Y-67690000D02*
X127545000Y-71500000D01*
G04 #@! TO.N,/E8(D7)*
X136435000Y-81025000D02*
X141985001Y-86575001D01*
X141985001Y-86575001D02*
X142785000Y-87375000D01*
X128815000Y-66420000D02*
X128815000Y-70865000D01*
X123100000Y-60705000D02*
X128815000Y-66420000D01*
X128815000Y-70865000D02*
X130720000Y-72770000D01*
X130720000Y-72770000D02*
X130720000Y-76580000D01*
X130720000Y-76580000D02*
X135165000Y-81025000D01*
X135165000Y-81025000D02*
X136435000Y-81025000D01*
G04 #@! TO.N,/E4(D11)*
X124370000Y-50545000D02*
X123100000Y-50545000D01*
X125640000Y-51815000D02*
X124370000Y-50545000D01*
X134530000Y-62610000D02*
X125640000Y-53720000D01*
X125640000Y-53720000D02*
X125640000Y-51815000D01*
G04 #@! TO.N,/E3(D10)*
X123100000Y-53085000D02*
X132625000Y-62610000D01*
X132625000Y-65785000D02*
X134530000Y-67690000D01*
X132625000Y-62610000D02*
X132625000Y-65785000D01*
G04 #@! TO.N,/E2(D9)*
X131355000Y-63880000D02*
X131355000Y-69595000D01*
X123100000Y-55625000D02*
X131355000Y-63880000D01*
X131355000Y-69595000D02*
X134530000Y-72770000D01*
G04 #@! TO.N,/E1(D8)*
X131990000Y-75310000D02*
X134530000Y-77850000D01*
X131990000Y-72135000D02*
X131990000Y-75310000D01*
X130085000Y-70230000D02*
X131990000Y-72135000D01*
X123100000Y-58165000D02*
X130085000Y-65150000D01*
X130085000Y-65150000D02*
X130085000Y-70230000D01*
G04 #@! TO.N,/5V_10V*
X198665000Y-84835000D02*
X198705000Y-84795000D01*
X216445000Y-84835000D02*
X198665000Y-84835000D01*
D30*
G04 #@! TO.N,+12V*
X198665000Y-79755000D02*
X197064999Y-81355001D01*
X195617000Y-82803000D02*
X198665000Y-79755000D01*
X195617000Y-91058000D02*
X195617000Y-82803000D01*
X178980000Y-96265000D02*
X189775000Y-96265000D01*
X189775000Y-96265000D02*
X195617000Y-91058000D01*
X173900000Y-117855000D02*
X177075000Y-117855000D01*
X177075000Y-117855000D02*
X177075000Y-114680000D01*
X170325000Y-111505000D02*
X161195000Y-102375000D01*
X173900000Y-111505000D02*
X170325000Y-111505000D01*
X177075000Y-114680000D02*
X173900000Y-111505000D01*
X161195000Y-96265000D02*
X161195000Y-100075000D01*
X161195000Y-102375000D02*
X161195000Y-100075000D01*
X207555000Y-131824000D02*
X207555000Y-129920000D01*
X177075000Y-119530000D02*
X186600000Y-129055000D01*
X177075000Y-117855000D02*
X177075000Y-119530000D01*
X186600000Y-129055000D02*
X186600000Y-132460000D01*
X186600000Y-132460000D02*
X190410000Y-136270000D01*
X190410000Y-136270000D02*
X203109000Y-136270000D01*
X203109000Y-136270000D02*
X207555000Y-131824000D01*
X163105000Y-96265000D02*
X163105000Y-93725000D01*
X163105000Y-96265000D02*
X178980000Y-96265000D01*
X161195000Y-96265000D02*
X163105000Y-96265000D01*
D31*
G04 #@! TO.N,GND*
X98335000Y-57784000D02*
X98335000Y-58165000D01*
X103669000Y-52450000D02*
X98335000Y-57784000D01*
D32*
G04 #@! TO.N,/A2X1*
X93255000Y-58165000D02*
X93255000Y-52450000D01*
G04 #@! TO.N,/B1X1*
X88175000Y-58165000D02*
X88175000Y-52450000D01*
G04 #@! TO.N,/B2X2*
X84084999Y-50190001D02*
X85635000Y-48640000D01*
X84084999Y-56614999D02*
X84084999Y-50190001D01*
X85635000Y-58165000D02*
X84084999Y-56614999D01*
G04 #@! TO.N,/B2Y2*
X84835001Y-83400001D02*
X85635000Y-84200000D01*
X84084999Y-82649999D02*
X84835001Y-83400001D01*
X84084999Y-77495001D02*
X84084999Y-82649999D01*
X85635000Y-75945000D02*
X84084999Y-77495001D01*
G04 #@! TO.N,/B1Y1*
X88175000Y-79755000D02*
X88175000Y-84200000D01*
G04 #@! TO.N,/A2Y1*
X93255000Y-79755000D02*
X93255000Y-84200000D01*
G04 #@! TO.N,/A1Y1*
X90715000Y-78485000D02*
X90715000Y-79755000D01*
X93255000Y-75945000D02*
X90715000Y-78485000D01*
G04 #@! TO.N,/B2Y1*
X88175000Y-77215000D02*
X85635000Y-79755000D01*
X88175000Y-75945000D02*
X88175000Y-77215000D01*
G04 #@! TO.N,/B2X1*
X88175000Y-49910000D02*
X85635000Y-52450000D01*
X88175000Y-48640000D02*
X88175000Y-49910000D01*
G04 #@! TO.N,/A1X1*
X90715000Y-51180000D02*
X90715000Y-52450000D01*
X93255000Y-48640000D02*
X90715000Y-51180000D01*
D31*
G04 #@! TO.N,/FLT_X*
X98335000Y-55625000D02*
X95795000Y-58165000D01*
X98335000Y-52450000D02*
X98335000Y-55625000D01*
G04 #@! TO.N,/FLT_Z*
X98335000Y-104520000D02*
X95795000Y-107060000D01*
X98335000Y-103250000D02*
X98335000Y-104520000D01*
G04 #@! TO.N,/FLT_Y*
X97085000Y-79755000D02*
X98335000Y-79755000D01*
X95795000Y-81045000D02*
X97085000Y-79755000D01*
X95795000Y-84200000D02*
X95795000Y-81045000D01*
G04 #@! TO.N,/A3(D4)*
X198030000Y-103250000D02*
X198030000Y-107695000D01*
X193585000Y-102615000D02*
X197395000Y-102615000D01*
X197395000Y-102615000D02*
X198030000Y-103250000D01*
X171360000Y-107060000D02*
X189140000Y-107060000D01*
X189140000Y-107060000D02*
X193585000Y-102615000D01*
X198030000Y-107695000D02*
X196125000Y-109600000D01*
D30*
G04 #@! TO.N,/COM*
X211365000Y-108330000D02*
X211365000Y-110430000D01*
X211365000Y-110430000D02*
X214159000Y-113224000D01*
X211365000Y-124840000D02*
X211365000Y-122554000D01*
X214159000Y-113224000D02*
X214159000Y-122300000D01*
X203745000Y-122300000D02*
X205015000Y-122300000D01*
X205015000Y-122300000D02*
X214159000Y-122300000D01*
X205015000Y-123383919D02*
X205015000Y-122300000D01*
X210095000Y-129920000D02*
X210095000Y-128650000D01*
X210095000Y-128650000D02*
X205015000Y-123383919D01*
D31*
G04 #@! TO.N,/RESET*
X111670000Y-82295000D02*
X111670000Y-91185000D01*
X107860000Y-78485000D02*
X111670000Y-82295000D01*
G04 #@! TO.N,/MOSI*
X178980000Y-68630000D02*
X178980000Y-70230000D01*
X177710000Y-67360000D02*
X178980000Y-68630000D01*
X177710000Y-63880000D02*
X177710000Y-67360000D01*
X177710000Y-63880000D02*
X176440000Y-62610000D01*
G04 #@! TO.N,/SERVO_PPM*
X173900000Y-77850000D02*
X173900000Y-77450000D01*
X173900000Y-77450000D02*
X175405000Y-75945000D01*
X183445000Y-75945000D02*
X180377000Y-75945000D01*
X184080000Y-75310000D02*
X183445000Y-75945000D01*
X185330000Y-75310000D02*
X184080000Y-75310000D01*
X175405000Y-75945000D02*
X180377000Y-75945000D01*
X180377000Y-75945000D02*
X181540000Y-75945000D01*
G04 #@! TO.N,/MISO*
X176440000Y-70630000D02*
X176440000Y-70230000D01*
G04 #@! TO.N,/SCK*
X173900000Y-68960000D02*
X173900000Y-70230000D01*
X176440000Y-66420000D02*
X173900000Y-68960000D01*
X176440000Y-66420000D02*
X176440000Y-65150000D01*
G04 #@! TO.N,/RESET_ATtiny*
X171360000Y-77450000D02*
X171360000Y-77850000D01*
G04 #@! TO.N,/SPINDEL_ON_OFF_R_LED*
X200570000Y-57905000D02*
X200570000Y-59435000D01*
X201205000Y-57270000D02*
X200570000Y-57905000D01*
X201205000Y-55350000D02*
X201205000Y-57270000D01*
G04 #@! TO.N,Spindle_Speed_Analog_0-5V*
X176440000Y-78250000D02*
X176440000Y-77850000D01*
X180320001Y-82130001D02*
X176440000Y-78250000D01*
X183133001Y-82130001D02*
X180320001Y-82130001D01*
X183933000Y-82930000D02*
X183133001Y-82130001D01*
X185965000Y-82930000D02*
X187489000Y-84454000D01*
X183933000Y-82930000D02*
X185965000Y-82930000D01*
X187489000Y-89534000D02*
X186473000Y-90550000D01*
X187489000Y-84454000D02*
X187489000Y-89534000D01*
G04 #@! TO.N,/M0X*
X83095000Y-68960000D02*
X81190000Y-67055000D01*
X83095000Y-70865000D02*
X83095000Y-68960000D01*
X81190000Y-67055000D02*
X81190000Y-65785000D01*
G04 #@! TO.N,/M1X*
X85635000Y-67690000D02*
X85000000Y-67055000D01*
X85635000Y-70865000D02*
X85635000Y-67690000D01*
X85000000Y-67055000D02*
X85000000Y-65785000D01*
G04 #@! TO.N,/M2Z*
X88175000Y-119760000D02*
X88175000Y-119125000D01*
X88175000Y-115315000D02*
X88810000Y-114680000D01*
X88175000Y-119760000D02*
X88175000Y-115315000D01*
G04 #@! TO.N,/M2Y*
X88175000Y-93725000D02*
X88810000Y-93090000D01*
X88175000Y-96900000D02*
X88175000Y-93725000D01*
X88810000Y-93090000D02*
X88810000Y-91820000D01*
G04 #@! TO.N,/M1Y*
X85635000Y-93725000D02*
X85000000Y-93090000D01*
X85635000Y-96900000D02*
X85635000Y-93725000D01*
X85000000Y-93090000D02*
X85000000Y-91820000D01*
G04 #@! TO.N,/M0Y*
X83095000Y-96900000D02*
X83095000Y-94995000D01*
X83095000Y-94995000D02*
X81190000Y-93090000D01*
X81190000Y-93090000D02*
X81190000Y-91820000D01*
G04 #@! TO.N,/M0Z*
X83095000Y-116585000D02*
X81190000Y-114680000D01*
X83095000Y-119760000D02*
X83095000Y-116585000D01*
G04 #@! TO.N,/M1Z*
X85635000Y-115315000D02*
X85000000Y-114680000D01*
X85635000Y-119760000D02*
X85635000Y-115315000D01*
G04 #@! TO.N,/D1_R_LED*
X199935000Y-96900000D02*
X199935000Y-99440000D01*
X199935000Y-99440000D02*
X199300000Y-100075000D01*
X192315000Y-100075000D02*
X188505000Y-103885000D01*
X192950000Y-100075000D02*
X192315000Y-100075000D01*
X199300000Y-100075000D02*
X192950000Y-100075000D01*
G04 #@! TO.N,/M2X*
X88175000Y-67690000D02*
X88810000Y-67055000D01*
X88175000Y-70865000D02*
X88175000Y-67690000D01*
X88810000Y-67055000D02*
X88810000Y-65785000D01*
D33*
G04 #@! TO.N,VMot*
X73059999Y-79120000D02*
X68614999Y-83565000D01*
X77380000Y-79120000D02*
X73059999Y-79120000D01*
X79160000Y-84200000D02*
X80544999Y-84200000D01*
X77380000Y-82420000D02*
X79160000Y-84200000D01*
X77380000Y-79120000D02*
X77380000Y-82420000D01*
X79410000Y-107060000D02*
X80544999Y-107060000D01*
X77505000Y-105155000D02*
X79410000Y-107060000D01*
X74205000Y-105155000D02*
X77505000Y-105155000D01*
X74205000Y-105155000D02*
X68614999Y-105155000D01*
X68614999Y-105155000D02*
X68614999Y-83565000D01*
X77380000Y-56385000D02*
X79160000Y-58165000D01*
X79160000Y-58165000D02*
X80544999Y-58165000D01*
X77380000Y-51815000D02*
X77380000Y-56385000D01*
X74169998Y-51815000D02*
X77380000Y-51815000D01*
X68614999Y-83565000D02*
X68614999Y-57369999D01*
X68614999Y-57369999D02*
X74169998Y-51815000D01*
X121182300Y-101992700D02*
X115480000Y-107695000D01*
X121182300Y-100062300D02*
X121182300Y-101992700D01*
D31*
X121182300Y-101992700D02*
X121169600Y-101980000D01*
D33*
X114845000Y-107695000D02*
X111670000Y-107695000D01*
X111670000Y-107695000D02*
X109130000Y-107695000D01*
X68614999Y-105155000D02*
X68614999Y-133155001D01*
X121182300Y-101992700D02*
X116225001Y-101992700D01*
X116225001Y-101992700D02*
X116225001Y-101980000D01*
X111791998Y-115315000D02*
X111791998Y-107816998D01*
X111791998Y-107816998D02*
X111670000Y-107695000D01*
X105320000Y-132460000D02*
X105320000Y-121786998D01*
X102780000Y-135000000D02*
X105320000Y-132460000D01*
X70459998Y-135000000D02*
X102780000Y-135000000D01*
X68614999Y-133155001D02*
X70459998Y-135000000D01*
X105320000Y-121786998D02*
X111791998Y-115315000D01*
D31*
G04 #@! TO.N,/D4_R_LED*
X111035000Y-101980000D02*
X109130000Y-103885000D01*
X113575000Y-101980000D02*
X111035000Y-101980000D01*
G04 #@! TO.N,/RV1_R2*
X216445000Y-87375000D02*
X215025001Y-87375000D01*
X213905000Y-87375000D02*
X215025001Y-87375000D01*
X215025001Y-87375000D02*
X209460000Y-87375000D01*
G04 #@! TO.N,/R3_RV1*
X209460000Y-82295000D02*
X216445000Y-82295000D01*
D33*
G04 #@! TO.N,VDC*
X109130000Y-122935000D02*
X115480000Y-122935000D01*
D31*
X109765000Y-123570000D02*
X109130000Y-122935000D01*
D33*
X110400000Y-129920000D02*
X109765000Y-130555000D01*
X109130000Y-122935000D02*
X110400000Y-124205000D01*
X110400000Y-124205000D02*
X110400000Y-129920000D01*
D31*
G04 #@! TO.N,/D5_R_LED*
X191680000Y-114680000D02*
X191680000Y-117220000D01*
G04 #@! TO.N,/D6_R_LED*
X186600000Y-117220000D02*
X186600000Y-119760000D01*
G04 #@! TO.N,/D7_R_LED*
X181520000Y-114680000D02*
X181520000Y-117220000D01*
G04 #@! TO.N,/IN8*
X169455000Y-121665000D02*
X169455000Y-115315000D01*
X175725000Y-127935000D02*
X169455000Y-121665000D01*
X175805000Y-130555000D02*
X175725000Y-130475000D01*
X175725000Y-130475000D02*
X175725000Y-127935000D01*
G04 #@! TO.N,/IN1*
X147865000Y-75310000D02*
X142150000Y-75310000D01*
X168185000Y-54990000D02*
X147865000Y-75310000D01*
X180250000Y-54990000D02*
X168185000Y-54990000D01*
X183505000Y-51815000D02*
X180330000Y-54990000D01*
G04 #@! TO.N,/IN2*
X146595000Y-70230000D02*
X142150000Y-70230000D01*
X151675000Y-65150000D02*
X146595000Y-70230000D01*
X153660000Y-65150000D02*
X151675000Y-65150000D01*
X153660000Y-65150000D02*
X166995000Y-51815000D01*
G04 #@! TO.N,/IN3*
X150405000Y-51895000D02*
X150485000Y-51815000D01*
X150405000Y-61340000D02*
X150405000Y-51895000D01*
X147394999Y-64350001D02*
X150405000Y-61340000D01*
X142150000Y-65150000D02*
X142949999Y-64350001D01*
X142949999Y-64350001D02*
X147394999Y-64350001D01*
G04 #@! TO.N,/IN4*
X142150000Y-59990000D02*
X142150000Y-60070000D01*
X133975000Y-51815000D02*
X142150000Y-59990000D01*
G04 #@! TO.N,/IN1_R_LED*
X142150000Y-77850000D02*
X145325000Y-77850000D01*
G04 #@! TO.N,/IN2_R_LED*
X142150000Y-72770000D02*
X145325000Y-72770000D01*
G04 #@! TO.N,/IN3_R_LED*
X142150000Y-67690000D02*
X145325000Y-67690000D01*
G04 #@! TO.N,/IN4_R_LED*
X142150000Y-62610000D02*
X145325000Y-62610000D01*
G04 #@! TO.N,/IN7_R_LED*
X159930000Y-121030000D02*
X161835000Y-122935000D01*
X150405000Y-121030000D02*
X159930000Y-121030000D01*
D30*
G04 #@! TO.N,/OUT3*
X196760000Y-130475000D02*
X196760000Y-130555000D01*
X200708630Y-126526370D02*
X196760000Y-130475000D01*
X200708630Y-111505000D02*
X200708630Y-126526370D01*
X203745000Y-109600000D02*
X202613630Y-109600000D01*
X202613630Y-109600000D02*
X200708630Y-111505000D01*
G04 #@! TO.N,/OUT2*
X207555000Y-115950000D02*
X211365000Y-119760000D01*
X207555000Y-108330000D02*
X207555000Y-115950000D01*
X203745000Y-107060000D02*
X206285000Y-107060000D01*
X206285000Y-107060000D02*
X207555000Y-108330000D01*
G04 #@! TO.N,/OUT1*
X205650000Y-104520000D02*
X203745000Y-104520000D01*
X206920000Y-103250000D02*
X205650000Y-104520000D01*
X211365000Y-103250000D02*
X206920000Y-103250000D01*
G04 #@! TD*
M02*
