M48
;DRILL file {KiCad (5.0.2)-1} date 07.11.2019 20:46:09
;FORMAT={-:-/ absolute / inch / decimal}
FMAT,2
INCH,TZ
T1C0.0157
T2C0.0315
T3C0.0354
T4C0.0394
T5C0.0433
T6C0.0472
T7C0.0512
T8C0.0591
T9C0.0630
T10C0.1693
%
G90
G05
T1
X3.7715Y-2.64
X3.7715Y-3.665
X3.7715Y-4.5677
X5.9215Y-4.765
X6.6715Y-4.54
X6.7465Y-4.215
X6.7965Y-4.265
X6.8437Y-4.315
T2
X5.0215Y-3.44
X5.0215Y-3.74
X5.1215Y-3.44
X5.1215Y-3.74
X5.2215Y-3.44
X5.2215Y-3.74
X5.3215Y-3.44
X5.3215Y-3.74
X5.4215Y-3.44
X5.4215Y-3.74
X5.5215Y-3.44
X5.5215Y-3.74
X5.6215Y-3.44
X5.6215Y-3.74
X5.7215Y-3.44
X5.7215Y-3.74
X7.7215Y-4.115
X7.7215Y-4.215
X7.7215Y-4.315
X7.7215Y-4.415
X7.7215Y-4.515
X7.7215Y-4.615
X7.7215Y-4.715
X7.7215Y-4.815
X8.0215Y-4.115
X8.0215Y-4.215
X8.0215Y-4.315
X8.0215Y-4.415
X8.0215Y-4.515
X8.0215Y-4.615
X8.0215Y-4.715
X8.0215Y-4.815
X7.1465Y-4.215
X7.1465Y-4.515
X6.4215Y-2.915
X6.4215Y-2.9937
X7.2965Y-2.34
X7.2965Y-2.64
X7.3965Y-2.34
X7.3965Y-2.64
X7.4965Y-2.34
X7.4965Y-2.64
X7.5965Y-2.34
X7.5965Y-2.64
X7.6965Y-2.34
X7.6965Y-2.64
X7.7965Y-2.34
X7.7965Y-2.64
X7.8965Y-2.34
X7.8965Y-2.64
X7.9965Y-2.34
X7.9965Y-2.64
X5.7215Y-2.465
X6.0215Y-2.465
X3.1715Y-3.315
X3.1715Y-3.815
X3.2715Y-3.315
X3.2715Y-3.815
X3.3715Y-3.315
X3.3715Y-3.815
X3.4715Y-3.315
X3.4715Y-3.815
X3.5715Y-3.315
X3.5715Y-3.815
X3.6715Y-3.315
X3.6715Y-3.815
X3.7715Y-3.315
X3.7715Y-3.815
X3.8715Y-3.315
X3.8715Y-3.815
X6.5715Y-4.54
X6.5715Y-4.84
X3.0465Y-2.9772
X3.0465Y-3.115
X7.9465Y-3.44
X8.2465Y-3.44
X7.5465Y-4.215
X7.5465Y-4.515
X6.0715Y-4.84
X6.3715Y-4.84
X7.6215Y-2.1791
X7.9215Y-2.1791
X2.9215Y-4.0022
X2.9215Y-4.14
X7.3415Y-3.565
X7.3415Y-3.7028
X3.1715Y-4.215
X3.1715Y-4.715
X3.2715Y-4.215
X3.2715Y-4.715
X3.3715Y-4.215
X3.3715Y-4.715
X3.4715Y-4.215
X3.4715Y-4.715
X3.5715Y-4.215
X3.5715Y-4.715
X3.6715Y-4.215
X3.6715Y-4.715
X3.7715Y-4.215
X3.7715Y-4.715
X3.8715Y-4.215
X3.8715Y-4.715
X5.7215Y-2.865
X6.0215Y-2.865
X4.2465Y-1.89
X4.2465Y-1.99
X4.2465Y-2.09
X4.2465Y-2.19
X4.2465Y-2.29
X4.2465Y-2.39
X4.2465Y-2.49
X4.2465Y-2.59
X4.2465Y-2.69
X4.2465Y-2.79
X4.2465Y-2.89
X4.2465Y-2.99
X4.2465Y-3.09
X4.2465Y-3.19
X4.2465Y-3.29
X4.8465Y-1.89
X4.8465Y-1.99
X4.8465Y-2.09
X4.8465Y-2.19
X4.8465Y-2.29
X4.8465Y-2.39
X4.8465Y-2.49
X4.8465Y-2.59
X4.8465Y-2.69
X4.8465Y-2.79
X4.8465Y-2.89
X4.8465Y-2.99
X4.8465Y-3.09
X4.8465Y-3.19
X4.8465Y-3.29
X5.7215Y-2.665
X6.0215Y-2.665
X5.2965Y-2.365
X5.2965Y-2.465
X5.2965Y-2.565
X5.2965Y-2.665
X5.2965Y-2.765
X5.2965Y-2.865
X5.2965Y-2.965
X5.2965Y-3.065
X5.5965Y-2.365
X5.5965Y-2.465
X5.5965Y-2.565
X5.5965Y-2.665
X5.5965Y-2.765
X5.5965Y-2.865
X5.5965Y-2.965
X5.5965Y-3.065
X5.7215Y-3.065
X6.0215Y-3.065
X7.2715Y-2.79
X7.5715Y-2.79
X4.7715Y-4.84
X5.0715Y-4.84
X5.4215Y-4.84
X5.7215Y-4.84
X3.0465Y-1.9022
X3.0465Y-2.04
X6.7465Y-2.765
X6.7465Y-3.065
X6.8465Y-2.765
X6.8465Y-3.065
X6.9465Y-2.765
X6.9465Y-3.065
X7.0465Y-2.765
X7.0465Y-3.065
X6.9415Y-3.265
X7.2415Y-3.265
X7.3465Y-4.315
X7.3465Y-4.615
X3.1715Y-2.29
X3.1715Y-2.79
X3.2715Y-2.29
X3.2715Y-2.79
X3.3715Y-2.29
X3.3715Y-2.79
X3.4715Y-2.29
X3.4715Y-2.79
X3.5715Y-2.29
X3.5715Y-2.79
X3.6715Y-2.29
X3.6715Y-2.79
X3.7715Y-2.29
X3.7715Y-2.79
X3.8715Y-2.29
X3.8715Y-2.79
X6.4215Y-3.6112
X6.4215Y-3.69
X7.9465Y-3.24
X8.2465Y-3.24
X6.6215Y-2.6665
X6.6215Y-2.765
X7.5215Y-3.14
X7.5215Y-3.24
X7.5215Y-3.34
X7.5215Y-3.44
X7.8215Y-3.14
X7.8215Y-3.24
X7.8215Y-3.34
X7.8215Y-3.44
X7.1215Y-4.09
X7.4215Y-4.09
X8.5215Y-3.24
X8.5215Y-3.34
X8.5215Y-3.44
X4.2965Y-3.79
X4.2965Y-4.09
T3
X4.4715Y-4.015
X4.5715Y-4.015
X7.7715Y-3.815
X7.8715Y-3.815
X7.1465Y-4.615
X7.1465Y-4.715
X7.3465Y-4.715
X7.3465Y-4.815
X7.5465Y-4.615
X7.5465Y-4.715
T4
X8.1715Y-5.115
X8.2715Y-5.115
X8.3715Y-5.115
X3.3465Y-2.49
X3.3465Y-2.59
X4.2965Y-3.59
X4.3965Y-3.59
X4.4965Y-3.59
X4.5965Y-3.59
X4.6965Y-3.59
X4.7965Y-3.59
X7.8965Y-2.965
X7.9965Y-2.965
X6.8465Y-2.465
X6.8465Y-2.565
X6.9465Y-2.465
X6.9465Y-2.565
X7.0465Y-2.465
X7.0465Y-2.565
X3.3715Y-3.14
X3.4715Y-3.14
X3.5715Y-3.14
X3.6715Y-3.14
X3.4965Y-2.49
X3.4965Y-2.59
X3.8715Y-3.965
X3.8715Y-4.065
X7.3815Y-3.225
X7.3815Y-3.325
X3.3715Y-2.99
X3.4715Y-2.99
X3.5715Y-2.99
X3.6715Y-2.99
X3.4965Y-3.515
X3.4965Y-3.615
X8.1465Y-3.615
X8.2465Y-3.615
X3.3715Y-4.04
X3.4715Y-4.04
X3.5715Y-4.04
X3.6715Y-4.04
X3.1965Y-2.49
X3.1965Y-2.59
X7.2965Y-2.965
X7.3965Y-2.965
X7.4965Y-2.965
X3.3715Y-2.065
X3.4715Y-2.065
X3.5715Y-2.065
X3.6715Y-2.065
X3.3465Y-3.515
X3.3465Y-3.615
X3.3715Y-1.915
X3.4715Y-1.915
X3.5715Y-1.915
X3.6715Y-1.915
X5.9965Y-3.39
X5.9965Y-3.49
X5.9965Y-3.59
X3.1965Y-4.415
X3.1965Y-4.515
X3.4965Y-4.415
X3.4965Y-4.515
X3.8715Y-3.04
X3.8715Y-3.14
X3.3465Y-4.415
X3.3465Y-4.515
X4.0815Y-1.965
X4.0815Y-2.065
X3.8715Y-1.965
X3.8715Y-2.065
X3.1965Y-3.515
X3.1965Y-3.615
T5
X7.0465Y-3.59
X7.0465Y-3.69
X7.0465Y-3.79
T6
X6.8465Y-4.54
X6.8465Y-4.64
X6.8465Y-4.74
T7
X7.5465Y-5.14
X7.7433Y-5.14
X7.9402Y-5.14
X6.3778Y-2.04
X6.5746Y-2.04
X6.7715Y-2.04
X8.3215Y-3.8713
X8.3215Y-4.0681
X8.3215Y-4.265
X4.3215Y-5.14
X4.5183Y-5.14
X5.0778Y-2.04
X5.2746Y-2.04
X5.4715Y-2.04
X8.3215Y-4.5213
X8.3215Y-4.7181
X8.3215Y-4.915
X2.8215Y-5.14
X3.0183Y-5.14
X3.2152Y-5.14
X5.4215Y-5.14
X5.6183Y-5.14
X5.8152Y-5.14
X6.0715Y-5.14
X6.2683Y-5.14
X6.4652Y-5.14
X8.3215Y-2.7431
X8.3215Y-2.94
X4.7715Y-5.14
X4.9683Y-5.14
X5.1652Y-5.14
X7.0278Y-2.04
X7.2246Y-2.04
X7.4215Y-2.04
X2.8465Y-4.39
X2.8465Y-4.5868
X2.8465Y-4.7837
X2.8465Y-3.365
X2.8465Y-3.5618
X2.8465Y-3.7587
X3.4715Y-5.14
X3.6683Y-5.14
X3.8652Y-5.14
X8.3215Y-2.2931
X8.3215Y-2.49
X2.8465Y-2.34
X2.8465Y-2.5368
X2.8465Y-2.7337
X6.7215Y-5.14
X6.9183Y-5.14
X7.1152Y-5.14
X5.7278Y-2.04
X5.9246Y-2.04
X6.1215Y-2.04
T8
X6.8215Y-3.6919
T9
X4.2965Y-4.24
X4.2965Y-4.84
X4.5465Y-4.24
X4.5465Y-4.84
X4.771Y-3.9395
X4.7715Y-4.64
X6.3463Y-3.94
X6.3463Y-4.6407
T10
X2.5789Y-5.4075
X8.5632Y-1.7854
X8.5632Y-5.4075
X2.5789Y-1.7854
T0
M30
